<?xml version="1.0" encoding="UTF-8"?>
<svg width="220" viewBox="0 0 857 223" fill="none" xmlns="http://www.w3.org/2000/svg">
            <g clip-path="url(#clip0_340_2444)">
            <path d="M4 96C4 89.3726 9.37258 84 16 84H383V219H16C9.37259 219 4 213.627 4 207V96Z" fill="#F11C26"/>
            <rect x="6" y="86" width="375" height="131" rx="10" stroke="white" stroke-width="4"/>
            <rect x="371" y="84" width="17" height="135" fill="#F11C26"/>
            <path d="M44.4103 98.104H44.7063L79.7823 175.508L114.414 98.104H114.71L135.43 202L121.37 203.776L109.086 139.544H108.79L79.9304 203.184H79.6344L50.0343 139.544H49.7383L37.7503 203.776L23.8383 202L44.4103 98.104ZM254.026 151.236C254.026 158.636 252.595 165.592 249.734 172.104C246.971 178.517 243.172 184.141 238.338 188.976C233.602 193.712 227.978 197.461 221.466 200.224C215.052 202.987 208.146 204.368 200.746 204.368C193.247 204.368 186.242 202.987 179.73 200.224C173.316 197.461 167.692 193.663 162.858 188.828C158.122 183.993 154.372 178.369 151.61 171.956C148.847 165.444 147.466 158.537 147.466 151.236C147.466 143.836 148.847 136.929 151.61 130.516C154.471 124.004 158.27 118.38 163.006 113.644C167.84 108.809 173.464 105.011 179.878 102.248C186.39 99.4853 193.346 98.104 200.746 98.104C208.244 98.104 215.2 99.5347 221.614 102.396C228.126 105.159 233.75 108.957 238.486 113.792C243.32 118.528 247.119 124.152 249.882 130.664C252.644 137.077 254.026 143.935 254.026 151.236ZM200.746 191.048C205.876 191.048 210.76 190.012 215.398 187.94C220.134 185.769 224.278 182.908 227.83 179.356C231.382 175.705 234.194 171.463 236.266 166.628C238.436 161.793 239.522 156.663 239.522 151.236C239.522 145.908 238.486 140.827 236.414 135.992C234.342 131.157 231.53 126.964 227.978 123.412C224.524 119.761 220.43 116.851 215.694 114.68C210.958 112.509 205.926 111.424 200.598 111.424C195.566 111.424 190.682 112.46 185.946 114.532C181.308 116.604 177.214 119.465 173.662 123.116C170.11 126.668 167.248 130.861 165.078 135.696C163.006 140.531 161.97 145.711 161.97 151.236C161.97 156.663 163.006 161.793 165.078 166.628C167.15 171.463 169.962 175.705 173.514 179.356C177.066 182.908 181.16 185.769 185.798 187.94C190.534 190.012 195.516 191.048 200.746 191.048ZM273.757 98.104L274.201 98.252L339.173 169.144V102.84L353.677 100.472V204.368L353.233 204.22L288.261 133.328V202L273.757 203.776V98.104Z" fill="white"/>
            </g>
            <path d="M385 84V82H383H16C8.26801 82 2 88.268 2 96V207C2 214.732 8.26802 221 16 221H383H385V219V84Z" stroke="#F11C26" stroke-width="4"/>
            <mask id="path-6-outside-1_340_2444" maskUnits="userSpaceOnUse" x="344.019" y="48" width="513" height="175" fill="black">
            <rect fill="white" x="344.019" y="48" width="513" height="175"/>
            <path fill-rule="evenodd" clip-rule="evenodd" d="M504.979 84C489.007 64.7624 460.947 52 428.999 52C397.051 52 368.991 64.7624 353.019 84H377V219L841 219C847.627 219 853 213.627 853 207V96C853 89.3726 847.627 84 841 84L504.979 84Z"/>
            </mask>
            <path fill-rule="evenodd" clip-rule="evenodd" d="M504.979 84C489.007 64.7624 460.947 52 428.999 52C397.051 52 368.991 64.7624 353.019 84H377V219L841 219C847.627 219 853 213.627 853 207V96C853 89.3726 847.627 84 841 84L504.979 84Z" fill="#F11C26"/>
            <path d="M504.979 84L501.901 86.5551L503.101 88H504.979V84ZM353.019 84L349.941 81.4449L344.499 88H353.019V84ZM377 84H381V80H377V84ZM377 219H373V223H377V219ZM508.056 81.4449C491.206 61.1491 461.938 48 428.999 48V56C459.956 56 486.808 68.3756 501.901 86.5551L508.056 81.4449ZM428.999 48C396.06 48 366.792 61.1491 349.941 81.4449L356.097 86.5551C371.19 68.3756 398.041 56 428.999 56V48ZM353.019 88H377V80H353.019V88ZM381 219V84H373V219H381ZM841 215L377 215V223L841 223V215ZM849 207C849 211.418 845.418 215 841 215V223C849.836 223 857 215.837 857 207H849ZM849 96V207H857V96H849ZM841 88C845.418 88 849 91.5817 849 96H857C857 87.1634 849.836 80 841 80V88ZM504.979 88L841 88V80L504.979 80V88Z" fill="#F11C26" mask="url(#path-6-outside-1_340_2444)"/>
            <path fill-rule="evenodd" clip-rule="evenodd" d="M353.02 88H354.898L356.098 86.5551C371.191 68.3756 398.043 56 429 56C459.957 56 486.809 68.3756 501.902 86.5551L503.102 88H504.98L841 88C845.418 88 849 91.5817 849 96V207C849 211.418 845.418 215 841 215L343 215V219L841 219C847.627 219 853 213.627 853 207V96C853 89.3726 847.627 84 841 84L504.98 84C489.008 64.7624 460.948 52 429 52C397.052 52 368.992 64.7624 353.02 84H343V88H353.02Z" fill="white"/>
            <path d="M532.296 100.472C537.229 100.472 541.768 101.212 545.912 102.692C550.056 104.073 553.608 106.096 556.568 108.76C559.627 111.424 561.995 114.581 563.672 118.232C565.349 121.883 566.188 125.928 566.188 130.368C566.188 135.005 565.547 139.347 564.264 143.392C562.981 147.339 560.761 150.792 557.604 153.752C554.545 156.712 550.451 159.031 545.32 160.708C540.189 162.385 533.776 163.224 526.08 163.224H518.976V202L504.472 203.776V100.472H532.296ZM530.668 149.904C533.924 149.904 536.835 149.608 539.4 149.016C541.965 148.325 544.136 147.24 545.912 145.76C547.787 144.181 549.217 142.159 550.204 139.692C551.191 137.127 551.684 134.019 551.684 130.368C551.684 124.843 549.76 120.699 545.912 117.936C542.163 115.173 537.081 113.792 530.668 113.792H518.976V149.904H530.668ZM685.772 151.236C685.772 158.636 684.341 165.592 681.48 172.104C678.717 178.517 674.919 184.141 670.084 188.976C665.348 193.712 659.724 197.461 653.212 200.224C646.799 202.987 639.892 204.368 632.492 204.368C624.993 204.368 617.988 202.987 611.476 200.224C605.063 197.461 599.439 193.663 594.604 188.828C589.868 183.993 586.119 178.369 583.356 171.956C580.593 165.444 579.212 158.537 579.212 151.236C579.212 143.836 580.593 136.929 583.356 130.516C586.217 124.004 590.016 118.38 594.752 113.644C599.587 108.809 605.211 105.011 611.624 102.248C618.136 99.4853 625.092 98.104 632.492 98.104C639.991 98.104 646.947 99.5347 653.36 102.396C659.872 105.159 665.496 108.957 670.232 113.792C675.067 118.528 678.865 124.152 681.628 130.664C684.391 137.077 685.772 143.935 685.772 151.236ZM632.492 191.048C637.623 191.048 642.507 190.012 647.144 187.94C651.88 185.769 656.024 182.908 659.576 179.356C663.128 175.705 665.94 171.463 668.012 166.628C670.183 161.793 671.268 156.663 671.268 151.236C671.268 145.908 670.232 140.827 668.16 135.992C666.088 131.157 663.276 126.964 659.724 123.412C656.271 119.761 652.176 116.851 647.44 114.68C642.704 112.509 637.672 111.424 632.344 111.424C627.312 111.424 622.428 112.46 617.692 114.532C613.055 116.604 608.96 119.465 605.408 123.116C601.856 126.668 598.995 130.861 596.824 135.696C594.752 140.531 593.716 145.711 593.716 151.236C593.716 156.663 594.752 161.793 596.824 166.628C598.896 171.463 601.708 175.705 605.26 179.356C608.812 182.908 612.907 185.769 617.544 187.94C622.28 190.012 627.263 191.048 632.492 191.048ZM720.451 188.68H763.519L757.599 202H705.947V100.472L720.451 98.104V188.68ZM771.459 98.104L800.911 147.536L822.223 98.104L836.135 102.396L790.551 204.368L776.343 201.26L794.103 162.928L757.251 102.248L771.459 98.104Z" fill="white"/>
            <path d="M484.256 151.236C484.256 158.636 482.826 165.592 479.964 172.104C477.202 178.517 473.403 184.141 468.568 188.976C463.832 193.712 458.208 197.461 451.696 200.224C445.283 202.987 438.376 204.368 430.976 204.368C423.478 204.368 416.472 202.987 409.96 200.224C403.547 197.461 397.923 193.663 393.088 188.828C388.352 183.993 384.603 178.369 381.84 171.956C379.078 165.444 377.696 158.537 377.696 151.236C377.696 143.836 379.078 136.929 381.84 130.516C384.702 124.004 388.5 118.38 393.236 113.644C398.071 108.809 403.695 105.011 410.108 102.248C416.62 99.4853 423.576 98.104 430.976 98.104C438.475 98.104 445.431 99.5347 451.844 102.396C458.356 105.159 463.98 108.957 468.716 113.792C473.551 118.528 477.35 124.152 480.112 130.664C482.875 137.077 484.256 143.935 484.256 151.236ZM430.976 191.048C436.107 191.048 440.991 190.012 445.628 187.94C450.364 185.769 454.508 182.908 458.06 179.356C461.612 175.705 464.424 171.463 466.496 166.628C468.667 161.793 469.752 156.663 469.752 151.236C469.752 145.908 468.716 140.827 466.644 135.992C464.572 131.157 461.76 126.964 458.208 123.412C454.755 119.761 450.66 116.851 445.924 114.68C441.188 112.509 436.156 111.424 430.828 111.424C425.796 111.424 420.912 112.46 416.176 114.532C411.539 116.604 407.444 119.465 403.892 123.116C400.34 126.668 397.479 130.861 395.308 135.696C393.236 140.531 392.2 145.711 392.2 151.236C392.2 156.663 393.236 161.793 395.308 166.628C397.38 171.463 400.192 175.705 403.744 179.356C407.296 182.908 411.391 185.769 416.028 187.94C420.764 190.012 425.747 191.048 430.976 191.048Z" fill="white"/>
            <path d="M387.142 82.7382C388.055 82.1349 388.778 81.1921 389.386 80.287C392.086 74.0649 396.003 68.6725 400.643 63.8456C409.998 53.9656 423.65 44.1233 440.041 42.0493C441.638 42.1247 443.35 41.5591 444.795 42.2378L454.036 52.0801C454.492 52.4572 455.063 52.6458 455.177 53.2114C455.025 53.4377 454.949 53.7393 454.721 53.8902C451.146 55.9265 447.153 57.0201 443.046 57.8497C433.88 59.5467 425.058 62.4126 416.501 65.4671C404.902 69.8791 395.623 76.4407 388.816 84.6237L387.142 82.7382Z" fill="white"/>
            <path d="M607.331 112.527C601.437 107.134 595.694 101.591 589.799 96.1986L588.583 95.0673L572.534 80.2096L566.564 74.6663C565.765 73.6482 564.282 73.3088 564.586 71.4987C564.814 71.0462 564.776 67.1621 563.94 66.0308C562.799 65.2011 563.445 63.1271 562.913 61.7696C562.723 60.4497 562.608 59.1299 561.886 58.1871C561.125 56.5279 558.958 55.9623 557.436 54.831C557.36 53.6243 556.828 52.7946 556.296 52.0404C553.976 49.8155 549.564 50.2681 546.598 51.1731C545.267 51.4371 544.392 52.8323 543.023 52.6061C531.12 41.9342 519.749 30.8852 508.15 19.9871C507.618 19.61 507.466 18.9312 507.276 18.2901C506.667 16.103 507.96 14.4437 509.405 13.3878C511.991 11.7286 514.349 14.142 517.011 14.0666C519.331 14.1798 521.271 12.9353 522.145 11.3892C522.183 11.0498 522.259 10.899 522.411 10.6727C522.221 9.95625 522.64 9.61688 522.602 8.9004H522.678C522.678 7.7691 522.259 6.90173 522.031 5.84585C520.51 3.05533 516.935 1.3207 513.17 1.13215C510.432 0.679635 507.808 1.47152 505.412 2.26343C499.556 4.67686 496.133 9.12662 495.334 15.3487L495.258 15.3488C495.144 20.3642 496.399 24.3237 499.099 27.3028C510.204 37.8615 521.499 48.3826 532.603 59.0921C533.288 60.4497 531.843 61.5056 531.843 63.014L531.767 63.014C531.538 64.7486 532.109 65.8422 532.337 67.3506C532.565 68.3311 533.44 69.123 533.136 70.2542C533.136 71.5364 531.082 70.6314 531.006 71.9135C529.105 73.271 527.659 75.0811 525.796 76.4764C524.693 77.1929 524.161 75.8354 523.286 75.7222C516.517 81.9066 507.048 88.883 498.377 93.7098C497.806 93.8984 497.16 94.3885 496.665 93.8229C496.057 92.5408 496.247 90.693 495.943 89.26C495.563 87.9025 495.601 86.2055 494.308 85.5267C494.003 85.753 493.927 86.2055 493.851 86.7335C493.851 87.1106 493.661 87.3745 493.547 87.6385C492.596 90.4667 491.037 92.8425 488.071 94.2754C487.615 94.3509 487.12 94.0869 487.006 93.6721C486.436 88.5812 485.751 83.679 484.002 79.4555C481.073 71.8004 476.814 65.0126 470.882 59.5069C469.779 58.0362 467.915 57.0935 466.546 55.8114C466.052 55.1703 465.101 54.9064 464.987 53.8883C465.976 52.9078 467.231 52.1159 468.41 51.324C471.566 48.3449 474.951 45.5167 475.787 40.9161C475.673 40.5013 475.521 40.1241 475.369 39.6716C474.875 38.9551 473.696 38.3895 472.441 38.6535C471.414 38.9174 470.958 39.5962 470.425 40.2749C468.486 44.3853 465.025 47.4398 461.108 50.1926C460.652 50.2681 460.081 50.532 459.663 50.268C457.876 48.9482 456.506 47.2889 454.605 46.0822C454.073 45.2526 453.16 44.7247 452.475 43.8951C450.117 40.8783 447.341 38.2009 445.212 35.0333L444.945 34.3922C441.181 30.0556 438.366 24.9271 435.78 19.7985C434.906 17.9508 433.917 16.2915 431.635 15.5373C425.17 13.8781 418.591 15.8013 412.659 17.2342C399.881 21.7594 388.928 29.0751 380.904 37.6353C378.09 40.5012 375.656 43.7443 373.564 47.1004C372.423 48.2317 372.081 49.7778 371.092 51.0599C370.56 52.9454 369.457 54.3407 369.039 56.2639C368.164 58.0363 368.012 61.8827 369.077 63.542C375.656 68.9345 381.474 75.0057 386 81.8312C386.342 82.1706 386.456 82.887 387.179 82.6231C388.129 82.0574 388.814 81.077 389.422 80.172C392.123 73.9498 396.04 68.5573 400.679 63.7305C410.034 53.8505 423.649 44.0459 440.04 41.8964C441.637 41.9719 443.386 41.444 444.831 42.0473C445.136 42.4244 445.554 42.8392 445.25 43.2917C441.979 43.8197 438.633 44.1967 435.59 45.2526L435.59 45.4789C438.404 48.2695 441.181 51.0977 444.185 53.6996L444.945 54.0768C447.798 53.7374 450.498 52.9455 453.084 51.8896H454.072C454.529 52.2667 455.099 52.4553 455.251 53.0586C455.061 53.2472 455.023 53.5865 454.795 53.7374C451.22 55.6983 447.189 56.905 443.12 57.6969C433.917 59.3561 425.132 62.2598 416.576 65.2389C404.939 69.6887 395.735 76.2501 388.852 84.3577C386.038 87.7516 384.403 91.7866 383.262 96.3872H383.186C383.11 96.8397 383.072 97.2545 383.072 97.707C382.463 104.947 385.201 110.453 391.02 113.432C393.073 114.563 395.469 114.752 397.827 115.28C398.245 115.845 398.778 116.298 398.778 117.128C398.512 117.241 398.131 117.392 397.827 117.241C379.421 113.621 361.585 107.172 346.183 97.707C345.613 97.3676 345.042 97.0283 344.472 96.6134L343.597 96.3495C341.924 98.3104 340.517 95.4068 339.072 94.9543C338.045 94.464 337.17 92.9933 335.687 93.559C334.85 93.4081 334.888 92.6162 334.356 92.2391C333.215 90.2028 331.352 88.7321 330.173 86.7334C329.983 84.8857 329.412 83.1888 329.754 81.1901H329.83C329.716 80.3982 330.021 79.3423 329.526 78.8521C328.956 78.2111 327.777 78.3242 326.94 78.475C322.263 79.1915 320.095 82.7739 319.182 86.6203H319.106L319.03 87.6008L318.954 87.6008L318.916 89.2224L318.84 89.2223C318.992 89.5994 318.65 89.7125 318.422 89.9388C313.136 92.0128 307.659 94.3509 302.829 97.1791C302.563 97.3677 302.297 97.5562 301.993 97.707C295.376 102.006 288.036 106.946 286.401 114.601L286.325 114.601L286.249 115.732L286.097 115.732C286.173 116.864 286.629 117.995 286.287 119.164C286.249 119.277 286.325 119.503 286.097 119.503C286.325 120.031 285.792 120.258 286.097 120.71C286.021 123.123 289.481 122.935 289.938 124.971C291.155 126.178 293.132 125.198 294.539 124.783C302.982 119.88 312.337 116.487 322.453 115.129C324.354 114.978 326.636 114.752 328.461 115.28C329.83 116.713 332.15 117.429 333.405 118.975C333.367 120.295 333.025 121.389 332.683 122.482C332.683 122.859 332.416 123.123 332.378 123.463C332.302 123.915 332.416 124.255 332.797 124.481C345.841 132.438 361.053 136.888 376.683 139.716C387.559 141.677 398.93 142.242 410.377 142.808L410.947 143.072L410.757 143.336C409.16 143.864 407.372 143.977 405.813 144.543C405.471 152.726 402.733 169.846 401.174 176.898C408.019 186.627 419.352 193.038 432.244 193C440.838 193 448.14 190.888 454.529 186.061L455.328 184.44C462.515 173.391 476.89 147.069 479.248 131.834C479.362 131.269 479.476 130.628 480.047 130.439C480.047 130.439 481.796 129.836 480.693 130.251C494.117 125.688 515.49 118.523 540.323 99.0269C540.361 98.235 539.791 97.971 539.487 97.2922C539.487 96.8397 539.639 96.4626 539.829 96.1232C540.285 95.5198 541.084 95.105 541.502 94.464C542.947 93.1064 544.659 91.7112 545.647 90.2782C545.343 89.3732 546.18 89.0714 546.522 88.4304C548.385 86.658 550.135 84.6217 553.215 83.8298C554.736 83.3773 556.296 80.7753 557.893 82.8116C562.646 87.3745 567.628 91.7111 572.534 96.1232C575.577 98.8383 578.543 101.629 581.433 104.495C587.556 109.736 593.26 115.242 599.117 120.672C600.143 121.313 600.714 122.935 602.501 122.369C605.772 121.087 608.092 118.938 608.814 115.732L608.89 115.732C609.385 114.111 608.092 113.583 607.331 112.527Z" fill="black"/>
            <path d="M518.762 7.73367C519.067 8.33703 519.028 9.05351 519.067 9.84541C518.496 10.7882 517.165 11.0522 516.024 10.9013C513.4 9.05353 509.255 8.94037 506.517 10.7504C505.794 11.6178 504.539 12.1834 504.349 13.3524C504.197 13.6541 503.893 13.8049 503.969 14.3329C503.855 14.5968 503.589 14.8608 503.589 15.1625C503.284 16.52 503.208 19.1598 504.197 20.2911C504.539 21.3092 505.414 21.7994 505.794 22.7045C507.848 25.1933 510.396 27.2674 512.868 29.4923L517.812 34.0928C519.029 35.4504 520.512 36.8457 521.919 38.0901C527.585 43.7089 533.708 49.026 539.374 54.7201C539.755 55.8514 537.777 55.776 537.016 56.3039C536.56 56.6056 536.028 56.8319 535.533 56.7187C534.088 55.8137 533.023 54.5316 531.806 53.4757C522.071 43.9728 511.803 34.9225 501.991 25.495C499.862 23.6095 498.949 20.8944 498.531 17.8399L498.417 15.615H498.493L498.569 14.71L498.645 14.71C499.71 10.1094 502.372 6.26302 507.62 4.90546C511.689 4.18898 516.328 5.01856 518.762 7.73367Z" fill="white"/>
            <path d="M418.897 21.0067C421.939 28.247 426.427 34.5069 431.142 40.6158C431.371 40.7667 431.218 41.2192 431.256 41.5586C428.1 42.7276 424.791 43.8212 421.673 45.2541C416.653 47.5922 412.47 50.3827 408.287 53.2487C406.651 53.211 406.385 51.514 405.396 50.6844C401.023 45.3673 396.003 40.465 391.021 35.6004C390.983 35.1856 390.831 35.0348 390.831 34.5823C393.797 31.3392 398.095 29.039 402.126 26.5501C406.803 23.9481 411.861 21.5724 417.147 20.1771C418.098 19.9886 418.631 20.4411 418.897 21.0067Z" fill="black"/>
            <path d="M554.772 54.9783C555.418 55.6948 555.266 57.0523 555.723 57.9573C556.673 58.4475 558.118 58.2967 558.993 59.0886C560.21 60.0691 560.324 61.6906 560.59 63.2367C560.172 63.5761 560.818 63.7646 560.59 64.2172V65.273L560.514 65.2731C560.324 65.537 560.59 66.0272 560.248 66.2158C561.047 67.3848 561.579 68.6669 561.313 70.5901H561.237C560.895 74.248 558.651 77.0008 555.456 78.5846C554.696 78.5846 553.669 79.1503 553.099 78.5847C553.289 77.8682 553.555 76.9254 554.087 76.4729C556.369 74.2103 556.978 71.2689 556.978 69.5343C556.939 69.2703 556.331 68.2898 556.065 68.1767C555.456 69.6851 554.467 71.2689 552.718 73.6823C551.691 75.0776 550.474 76.2843 548.573 76.9631C547.698 77.1516 546.862 76.7745 546.481 76.2466C546.139 75.7564 546.215 75.0776 546.215 74.3988C547.546 72.9281 549.258 71.6083 550.094 69.7228C551.958 67.3471 552.186 64.3303 552.376 63.3121C552.338 63.1236 551.729 63.0482 551.425 63.199C549.524 65.2353 548.155 68.7047 545.645 70.1376C545.074 70.2508 544.466 70.1754 544.238 69.7983C544.009 69.1949 543.591 68.2521 543.819 67.5734V66.97C543.933 66.706 544.162 66.4043 544.124 66.0649C544.352 65.0845 545.036 64.4812 545.379 63.6138C545.15 63.0859 545.721 63.199 545.873 62.9728C547.242 61.3889 549.029 60.1445 549.562 57.8819L549.638 57.8819C549.752 56.7129 549.219 55.657 548.725 54.7143C548.611 53.6207 550.094 53.8847 550.817 53.4699C552.528 52.9797 554.011 53.9224 554.772 54.9783Z" fill="white"/>
            <path d="M375.241 56.6083C380.945 61.2089 385.547 66.526 389.882 72.1071C389.996 72.371 390.072 72.5973 390.034 72.9367C389.92 73.2761 389.578 73.6155 389.54 74.0303C389.045 74.5959 388.779 75.3124 388.323 75.8403C387.562 76.142 387.258 75.3878 386.878 75.0861C382.999 70.033 378.321 65.3947 373.491 61.0581C372.959 60.7564 373.263 59.9268 373.225 59.3611L373.301 59.3612C373.415 58.343 373.871 57.7396 374.176 56.91C374.252 56.6083 374.86 56.2312 375.241 56.6083Z" fill="black"/>
            <path d="M462.707 57.8127C463.315 58.2652 464.114 58.6801 464.228 59.5474C462.973 60.4147 460.767 60.7164 461.224 62.8281C461.452 63.2052 461.832 63.507 462.365 63.6578C463.239 63.6955 463.734 62.979 464.494 62.6773C469.02 61.9608 471.111 65.7696 473.013 68.183C474.952 71.1621 476.968 73.9149 478.223 77.4219C478.984 78.6286 479.478 80.0993 479.896 81.5699C480.695 82.8898 480.847 84.6999 481.341 86.246C481.608 87.7921 481.95 89.2627 482.102 90.922C481.836 92.5435 482.71 93.5617 482.406 95.2964C482.026 96.2768 480.695 95.7112 479.782 95.7866C476.017 94.9947 472.366 93.7125 468.107 94.0896C467.004 93.3731 467.156 91.8647 466.358 90.9974C465.331 89.4513 464.19 87.8675 461.984 87.0379C460.73 87.0002 459.436 87.3773 458.258 87.7167C458.181 87.8675 458.067 88.2823 458.334 88.32C460.349 89.9415 462.669 91.4122 462.517 94.5798C462.365 94.5798 462.327 94.7684 462.327 94.8438C462.251 96.503 459.893 96.7293 458.828 97.7098C458.714 98.5771 459.056 99.1427 459.398 99.6329C460.996 101.292 463.239 99.7461 464.951 99.1805C467.499 96.2014 473.127 96.8802 476.702 98.0115C481.988 100.463 488.567 98.6148 492.408 95.2586C492.826 94.9192 492.94 95.4849 492.978 95.7489V96.4276C493.092 97.2949 492.446 97.6343 492.484 98.4262C492.37 98.7656 492.142 99.0673 492.142 99.369C489.746 105.591 484.726 110.72 476.74 112.153C473.089 112.605 469.438 112.077 466.358 110.456C465.711 110.343 465.787 110.87 465.521 111.134C463.277 115.999 459.436 119.808 454.074 122.485C447.419 125.54 437.227 125.012 432.131 120.185C432.017 119.77 432.322 119.695 432.436 119.431C437.646 120.222 442.361 117.281 444.415 113.812C445.67 111.964 446.468 109.815 448.028 108.193C450.347 105.893 453.086 103.555 456.85 102.537C457.383 102.235 457.573 101.82 457.573 101.141C457.383 100.576 457.117 100.085 456.394 99.8215C450.842 99.5198 447.229 103.479 444.453 106.534C443.768 107.514 443.16 108.495 442.551 109.551L442.551 109.852C442.437 110.192 442.057 110.493 442.057 110.87C441.791 110.984 441.867 111.21 441.791 111.436C440.878 113.699 438.558 115.32 435.82 115.999C431.447 116.791 427.112 114.302 424.982 111.587C424.335 111.021 424.373 109.777 423.194 109.815C423.08 112.039 424.145 113.623 424.868 115.471C427.606 122.41 435.668 127.463 444.871 127.764C449.739 127.915 454.15 126.709 457.991 124.484C460.996 123.088 463.277 121.128 465.255 118.865C466.662 117.922 468.678 119.619 469.438 117.809C470.199 117.13 470.351 115.999 471.53 115.584C473.774 115.622 476.169 115.66 478.337 115.32C478.755 115.433 478.793 115.773 478.755 116.263H478.679C474.154 126.256 462.403 134.515 448.332 133.76C435.782 133.383 425.02 126.558 417.87 119.242C417.262 118.563 417.262 117.432 416.882 116.527C415.931 115.509 415.589 117.13 414.79 117.394C412.09 119.167 407.488 118.978 404.788 117.055C402.468 115.207 400.301 112.982 401.023 109.324C401.175 109.4 401.137 109.211 401.137 109.06C401.67 107.25 403.305 106.006 405.435 105.478C406.081 105.365 406.918 105.214 407.146 104.611C407.146 103.555 406.195 103.14 405.359 102.763C403.952 101.896 401.632 104.045 401.442 101.745C401.251 101.104 401.137 100.387 401.023 99.5198L400.985 98.0491L401.061 97.1441H401.137C401.594 95.334 402.05 93.5994 402.811 92.0156C404.18 89.5267 405.853 87.1887 407.716 84.9639C411.025 81.3814 415.094 78.176 419.391 75.197C423.118 72.5573 427.834 70.3701 432.245 68.4846C427.758 68.4092 424.031 70.521 420.152 72.1048C408.819 77.6858 399.692 84.6999 394.825 94.8061C393.037 97.8606 392.467 103.932 394.748 107.024L395.889 108.683C396.118 108.91 396.003 109.4 396.003 109.852C394.939 110.531 393.646 109.475 392.695 108.985C388.854 106.685 387.561 101.782 388.55 96.8802C390.451 89.8661 395.129 84.7753 400.567 80.2878C408.059 73.9149 418.517 68.7486 429.013 65.7318C437.608 62.4888 447.267 61.81 455.824 58.303C457.497 57.9259 458.828 56.4552 460.653 56.606L462.707 57.8127Z" fill="white"/>
            <path d="M546.298 57.3611C546.412 58.0776 545.993 58.5678 545.689 59.0203C544.662 60.1139 543.445 61.019 542.419 62.188V62.4896C542.305 62.829 542.229 63.2061 541.924 63.4324C540.403 65.5441 540.327 69.7677 541.696 72.1057C542.305 72.8599 542.381 73.9157 543.065 74.5945C543.027 77.4227 544.51 79.1951 547.515 79.5345C548.313 80.251 549.112 81.0429 549.91 81.7594C549.91 82.2873 549.454 82.3627 549.074 82.6644C547.248 83.2678 545.917 84.5121 544.814 85.7566C544.358 85.9828 543.788 86.4731 543.255 86.096C541.088 83.5694 539.49 80.7035 537.323 78.1769C536.638 77.0456 535.764 76.1783 535.155 75.047L535.155 74.7453C535.459 74.4436 535.497 73.9534 535.878 73.6517C536.448 72.709 536.866 71.6154 536.676 70.0693C535.725 68.5232 534.585 67.2411 534.699 64.8654V63.6586C535.269 61.3583 536.904 59.9631 538.768 58.5678C540.783 57.0971 543.483 57.1348 545.993 56.984L546.298 57.3611Z" fill="white"/>
            <path d="M563.672 77.0046C572.875 85.1499 581.66 93.6346 590.787 101.855C595.085 106.192 599.914 110.227 604.212 114.564C604.44 115.167 605.352 115.318 605.048 116.449C604.554 117.316 604.021 118.297 602.842 118.636C601.778 118.636 601.245 117.882 600.675 117.392C596.796 113.847 593.259 110.34 589.418 106.607C585.881 103.477 582.459 100.385 579.074 97.1793C572.837 91.5228 566.677 85.791 560.554 80.0214C559.641 79.1163 561.124 78.7015 561.352 78.0227C562.151 77.6833 562.455 76.4012 563.672 77.0046Z" fill="white"/>
            <path d="M532.68 79.0031C534.391 81.3788 536.141 83.7169 537.89 86.1303C538.537 86.3943 538.537 86.9222 538.689 87.4501C539.183 88.6192 540.362 89.2602 540.286 90.7686C539.677 91.6736 538.917 92.5032 537.89 93.1443C536.141 93.3706 535.989 91.5605 535.114 90.7686C532.756 87.2239 530.132 83.8677 527.584 80.5115C527.356 80.2853 527.508 79.8328 527.47 79.4934C528.383 78.6638 529.257 77.7964 530.398 77.1176C531.691 77.1176 532.072 78.2489 532.68 79.0031Z" fill="white"/>
            <path d="M326.368 83.4897C326.406 83.6028 326.292 83.7913 326.406 83.829C326.673 86.0539 327.281 87.9394 327.89 90.0512C329.563 92.6909 331.464 95.1797 332.605 98.1965C332.719 98.6867 332.985 99.1015 333.099 99.5917C332.947 99.5917 332.947 99.7426 332.985 99.8557C331.616 103.25 330.171 106.493 328.954 109.887L328.232 110.377C318.23 110.49 309.521 113.771 301.079 117.617C298.227 118.937 295.793 120.596 293.016 121.991C291.876 121.916 291.115 121.011 290.164 120.521C289.898 120.257 289.708 119.842 289.708 119.314C289.252 117.353 289.67 114.977 289.936 113.054C290.392 112.677 290.507 112.036 290.811 111.508C293.397 108.491 296.934 106.04 300.356 103.551C305.376 100.082 311.423 96.8766 317.66 94.8403C318.344 94.8403 318.458 95.2551 318.61 95.783C318.458 96.311 318.762 96.4618 318.762 96.9144C319.333 98.9884 320.246 100.648 321.615 102.081C321.843 102.458 322.413 102.495 322.832 102.382C323.288 102.081 323.326 101.59 323.364 100.949C323.098 100.836 323.326 100.535 323.174 100.384C321.957 98.1211 321.881 94.0484 322.641 91.4842C322.337 88.2411 323.136 85.3374 325.113 83.5274C325.303 83.188 326.33 82.924 326.368 83.4897Z" fill="white"/>
            <path d="M340.597 101.218V101.822L340.521 101.821C338.429 105.856 336.794 110.118 335.158 114.53C334.132 115.095 333.257 114.077 332.61 113.662C332.154 113.361 332.344 112.644 332.306 112.079C332.42 111.815 332.648 111.513 332.686 111.249C334.208 107.252 335.767 103.368 337.592 99.6721C338.695 98.9556 339.684 100.313 340.521 100.69L340.597 101.218Z" fill="white"/>
            <path d="M305.412 104.117C305.603 104.456 305.526 104.833 305.488 105.248C303.739 106.606 301.647 107.775 299.86 109.095C297.16 111.093 294.498 113.28 291.722 115.128C295.106 110.792 299.746 107.247 304.348 103.74C304.804 103.212 305.26 103.815 305.412 104.117Z" fill="black"/>
            <path d="M307.466 109.696C308.074 111.356 306.249 111.355 305.45 111.997C301.305 113.844 297.959 116.107 294.08 118.068V117.615C297.616 114.259 301.762 111.355 306.515 108.829C307.124 108.678 307.276 109.357 307.466 109.696Z" fill="black"/>
            <path d="M420.644 167.999C420.416 168.98 420.872 169.432 421.1 170.111C423.382 172.298 425.588 174.561 428.364 176.484C428.972 176.786 429.581 177.314 430.455 177.276C434.258 175.617 438.023 173.693 441.56 171.77L442.32 171.77C445.439 174.108 448.025 176.823 451.524 178.935C451.904 179.237 452.588 179.237 452.893 178.935C455.517 175.202 457.951 171.28 460.156 167.207C462.096 163.474 464.378 159.854 465.975 155.857C466.279 155.706 466.317 155.291 466.431 155.027C466.85 153.858 467.496 152.991 467.914 151.822C468.104 151.407 468.104 150.879 468.409 150.577C469.359 148.051 470.386 145.675 471.185 143.073C472.63 139.378 473.581 135.267 474.569 131.195H474.645C474.607 130.553 474.912 129.271 473.923 129.724C469.283 133.042 463.731 136.285 457.494 137.266C445.439 139.415 433.574 136.323 424.447 130.214L423.914 130.214C423.23 130.516 423.382 131.421 423.572 132.439C424.295 142.658 424.713 149.635 420.644 167.999Z" fill="white"/>
            <path d="M518.762 7.73367C519.067 8.33703 519.028 9.05351 519.067 9.84541C518.496 10.7882 517.165 11.0522 516.024 10.9013C513.4 9.05353 509.255 8.94037 506.517 10.7504C505.794 11.6178 504.539 12.1834 504.349 13.3524C504.197 13.6541 503.893 13.8049 503.969 14.3329C503.855 14.5968 503.589 14.8608 503.589 15.1625C503.284 16.52 503.208 19.1598 504.197 20.2911C504.539 21.3092 505.414 21.7994 505.794 22.7045C507.848 25.1933 510.396 27.2674 512.868 29.4923L517.812 34.0928C519.029 35.4504 520.512 36.8457 521.919 38.0901C527.585 43.7089 533.708 49.026 539.374 54.7201C539.755 55.8514 537.777 55.776 537.016 56.3039C536.56 56.6056 536.028 56.8319 535.533 56.7187C534.088 55.8137 533.023 54.5316 531.806 53.4757C522.071 43.9728 511.803 34.9225 501.991 25.495C499.862 23.6095 498.949 20.8944 498.531 17.8399L498.417 15.615H498.493L498.569 14.71L498.645 14.71C499.71 10.1094 502.372 6.26302 507.62 4.90546C511.689 4.18898 516.328 5.01856 518.762 7.73367Z" fill="white"/>
            <path d="M554.772 54.9783C555.418 55.6948 555.266 57.0523 555.723 57.9573C556.673 58.4475 558.118 58.2967 558.993 59.0886C560.21 60.0691 560.324 61.6906 560.59 63.2367C560.172 63.5761 560.818 63.7646 560.59 64.2172V65.273L560.514 65.2731C560.324 65.537 560.59 66.0272 560.248 66.2158C561.047 67.3848 561.579 68.6669 561.313 70.5901H561.237C560.895 74.248 558.385 76.2098 555.153 77.8313C554.392 77.8313 553.632 78.4347 553.023 77.8313C553.213 77.1148 554.621 76.6246 554.925 76.0212C556.028 74.3997 556.636 71.9863 557.13 69.8368C557.054 69.6106 556.522 69.158 556.256 69.0449C554.621 69.9877 553.974 72.5142 552.681 73.7209C551.464 74.9276 550.437 76.3229 548.536 77.0017C547.661 77.1902 546.824 76.8131 546.444 76.2852C546.102 75.795 546.178 75.1162 546.178 74.4374C547.509 72.9667 549.22 71.6469 550.057 69.7614C550.627 69.1957 551.388 68.8186 551.54 67.9136C552.225 67.3102 551.958 65.915 552.035 64.9345C551.996 64.746 551.084 63.6147 550.856 63.7655C548.954 65.8019 548.118 68.7432 545.57 70.1385C544.999 70.2516 544.391 70.1762 544.162 69.7991C543.934 69.1957 543.516 68.253 543.744 67.5742V66.9709C543.858 66.7069 544.086 66.4052 544.048 66.0658C544.277 65.0854 545.684 63.2376 545.798 62.9736C547.167 61.3898 548.954 60.1454 549.487 57.8828L549.562 57.8819C549.676 56.7129 549.144 55.6579 548.65 54.7152C548.536 53.6216 550.019 53.8855 550.742 53.4707C552.529 52.9805 554.011 53.9224 554.772 54.9783Z" fill="white"/>
            <path d="M462.707 57.8127C463.315 58.2652 464.114 58.6801 464.228 59.5474C462.973 60.4147 460.767 60.7164 461.224 62.8281C461.452 63.2052 461.832 63.507 462.365 63.6578C463.239 63.6955 463.734 62.979 464.494 62.6773C469.02 61.9608 471.111 65.7696 473.013 68.183C474.952 71.1621 476.968 73.9149 478.223 77.4219C478.984 78.6286 479.478 80.0993 479.896 81.5699C480.695 82.8898 480.847 84.6999 481.341 86.246C481.608 87.7921 481.95 89.2627 482.102 90.922C481.836 92.5435 482.71 93.5617 482.406 95.2964C482.026 96.2768 480.695 95.7112 479.782 95.7866C476.017 94.9947 472.366 93.7125 468.107 94.0896C467.004 93.3731 467.156 91.8647 466.358 90.9974C465.331 89.4513 464.19 87.8675 461.984 87.0379C460.73 87.0002 459.436 87.3773 458.258 87.7167C458.181 87.8675 458.067 88.2823 458.334 88.32C460.349 89.9415 462.669 91.4122 462.517 94.5798C462.365 94.5798 462.327 94.7684 462.327 94.8438C462.251 96.503 459.893 96.7293 458.828 97.7098C458.714 98.5771 459.056 99.1427 459.398 99.6329C460.996 101.292 463.239 99.7461 464.951 99.1805C467.499 96.2014 473.127 96.8802 476.702 98.0115C481.988 100.463 488.567 98.6148 492.408 95.2586C492.826 94.9192 492.94 95.4849 492.978 95.7489V96.4276C493.092 97.2949 492.446 97.6343 492.484 98.4262C492.37 98.7656 492.142 99.0673 492.142 99.369C489.746 105.591 484.726 110.72 476.74 112.153C473.089 112.605 469.438 112.077 466.358 110.456C465.711 110.343 465.787 110.87 465.521 111.134C463.277 115.999 459.436 119.808 454.074 122.485C447.419 125.54 437.227 125.012 432.131 120.185C432.017 119.77 432.322 119.695 432.436 119.431C437.646 120.222 442.361 117.281 444.415 113.812C445.67 111.964 446.468 109.815 448.028 108.193C450.347 105.893 453.086 103.555 456.85 102.537C457.383 102.235 457.573 101.82 457.573 101.141C457.383 100.576 457.117 100.085 456.394 99.8215C450.842 99.5198 447.229 103.479 444.453 106.534C443.768 107.514 443.16 108.495 442.551 109.551L442.551 109.852C442.437 110.192 442.057 110.493 442.057 110.87C441.791 110.984 441.867 111.21 441.791 111.436C440.878 113.699 438.558 115.32 435.82 115.999C431.447 116.791 427.112 114.302 424.982 111.587C424.335 111.021 424.373 109.777 423.194 109.815C423.08 112.039 424.145 113.623 424.868 115.471C427.606 122.41 435.668 127.463 444.871 127.764C449.739 127.915 454.15 126.709 457.991 124.484C460.996 123.088 463.277 121.128 465.255 118.865C466.662 117.922 468.678 119.619 469.438 117.809C470.199 117.13 470.351 115.999 471.53 115.584C473.774 115.622 476.169 115.66 478.337 115.32C478.755 115.433 478.793 115.773 478.755 116.263H478.679C474.154 126.256 462.403 134.515 448.332 133.76C435.782 133.383 425.02 126.558 417.87 119.242C417.262 118.563 417.262 117.432 416.882 116.527C415.931 115.509 415.589 117.13 414.79 117.394C412.09 119.167 407.488 118.978 404.788 117.055C402.468 115.207 400.301 112.982 401.023 109.324C401.175 109.4 401.137 109.211 401.137 109.06C401.67 107.25 403.305 106.006 405.435 105.478C406.081 105.365 406.918 105.214 407.146 104.611C407.146 103.555 406.195 103.14 405.359 102.763C403.952 101.896 401.632 104.045 401.442 101.745C401.251 101.104 401.137 100.387 401.023 99.5198L400.985 98.0491L401.061 97.1441H401.137C401.594 95.334 402.05 93.5994 402.811 92.0156C404.18 89.5267 405.853 87.1887 407.716 84.9639C411.025 81.3814 415.094 78.176 419.391 75.197C423.118 72.5573 427.834 70.3701 432.245 68.4846C427.758 68.4092 424.031 70.521 420.152 72.1048C408.819 77.6858 399.692 84.6999 394.825 94.8061C393.037 97.8606 392.467 103.932 394.748 107.024L395.889 108.683C396.118 108.91 396.003 109.4 396.003 109.852C394.939 110.531 393.646 109.475 392.695 108.985C388.854 106.685 387.561 101.782 388.55 96.8802C390.451 89.8661 395.129 84.7753 400.567 80.2878C408.059 73.9149 418.517 68.7486 429.013 65.7318C437.608 62.4888 447.267 61.81 455.824 58.303C457.497 57.9259 458.828 56.4552 460.653 56.606L462.707 57.8127Z" fill="white"/>
            <path d="M546.298 57.3611C546.412 58.0776 545.993 58.5678 545.689 59.0203C544.662 60.1139 543.445 61.019 542.419 62.188V62.4896C542.305 62.829 542.229 63.2061 541.924 63.4324C540.403 65.5441 540.327 69.7677 541.696 72.1057C542.305 72.8599 542.381 73.9157 543.065 74.5945C543.331 77.121 544.853 78.8557 547.515 79.5345C548.313 80.251 549.112 81.0429 549.91 81.7594C549.91 82.2873 549.454 82.3627 549.074 82.6644C547.248 83.2678 545.917 84.5121 544.814 85.7566C544.358 85.9828 543.788 86.4731 543.255 86.096C541.088 83.5694 539.49 80.7035 537.323 78.1769C536.638 77.0456 535.764 76.1783 535.155 75.047L535.155 74.7453C535.459 74.4436 535.497 73.9534 535.878 73.6517C536.448 72.709 536.866 71.6154 536.676 70.0693C535.725 68.5232 534.585 67.2411 534.699 64.8654V63.6586C535.269 61.3583 536.904 59.9631 538.768 58.5678C540.783 57.0971 543.483 57.1348 545.993 56.984L546.298 57.3611Z" fill="white"/>
            <path d="M563.672 77.0046C572.875 85.1499 581.66 93.6346 590.787 101.855C595.085 106.192 599.914 110.227 604.212 114.564C604.44 115.167 605.352 115.318 605.048 116.449C604.554 117.316 604.021 118.297 602.842 118.636C601.778 118.636 601.245 117.882 600.675 117.392C596.796 113.847 593.259 110.34 589.418 106.607C585.881 103.477 582.459 100.385 579.074 97.1793C572.837 91.5228 566.677 85.791 560.554 80.0214C559.641 79.1163 561.124 78.7015 561.352 78.0227C562.151 77.6833 562.455 76.4012 563.672 77.0046Z" fill="white"/>
            <path d="M532.68 79.0031C534.391 81.3788 536.141 83.7169 537.89 86.1303C538.537 86.3943 538.537 86.9222 538.689 87.4501C539.183 88.6192 540.362 89.2602 540.286 90.7686C539.677 91.6736 538.917 92.5032 537.89 93.1443C536.141 93.3706 535.989 91.5605 535.114 90.7686C532.756 87.2239 530.132 83.8677 527.584 80.5115C527.356 80.2853 527.508 79.8328 527.47 79.4934C528.383 78.6638 529.257 77.7964 530.398 77.1176C531.691 77.1176 532.072 78.2489 532.68 79.0031Z" fill="white"/>
            <path d="M326.368 83.4897C326.406 83.6028 326.292 83.7913 326.406 83.829C326.673 86.0539 327.281 87.9394 327.89 90.0512C329.563 92.6909 331.464 95.1797 332.605 98.1965C332.719 98.6867 332.985 99.1015 333.099 99.5917C332.947 99.5917 332.947 99.7426 332.985 99.8557C331.616 103.25 330.171 106.493 328.954 109.887L328.232 110.377C318.23 110.49 309.521 113.771 301.079 117.617C298.227 118.937 295.793 120.596 293.016 121.991C291.876 121.916 291.115 121.011 290.164 120.521C289.898 120.257 289.708 119.842 289.708 119.314C289.252 117.353 289.67 114.977 289.936 113.054C290.392 112.677 290.507 112.036 290.811 111.508C293.397 108.491 296.934 106.04 300.356 103.551C305.376 100.082 311.423 96.8766 317.66 94.8403C318.344 94.8403 318.458 95.2551 318.61 95.783C318.458 96.311 318.762 96.4618 318.762 96.9144C319.333 98.9884 320.246 100.648 321.615 102.081C321.843 102.458 322.413 102.495 322.832 102.382C323.288 102.081 323.326 101.59 323.364 100.949C323.098 100.836 323.326 100.535 323.174 100.384C321.957 98.1211 321.881 94.0484 322.641 91.4842C322.337 88.2411 323.136 85.3374 325.113 83.5274C325.303 83.188 326.33 82.924 326.368 83.4897Z" fill="white"/>
            <path d="M340.597 101.218V101.822L340.521 101.821C338.429 105.856 336.794 110.118 335.158 114.53C334.132 115.095 333.257 114.077 332.61 113.662C332.154 113.361 332.344 112.644 332.306 112.079C332.42 111.815 332.648 111.513 332.686 111.249C334.208 107.252 335.767 103.368 337.592 99.6721C338.695 98.9556 339.684 100.313 340.521 100.69L340.597 101.218Z" fill="white"/>
            <path d="M305.412 104.117C305.603 104.456 305.526 104.833 305.488 105.248C303.739 106.606 301.647 107.775 299.86 109.095C297.16 111.093 294.498 113.28 291.722 115.128C295.106 110.792 299.746 107.247 304.348 103.74C304.804 103.212 305.26 103.815 305.412 104.117Z" fill="black"/>
            <path d="M307.466 109.696C308.074 111.356 306.249 111.355 305.45 111.997C301.305 113.844 297.959 116.107 294.08 118.068V117.615C297.616 114.259 301.762 111.355 306.515 108.829C307.124 108.678 307.276 109.357 307.466 109.696Z" fill="black"/>
            <path d="M420.644 167.999C420.416 168.98 420.872 169.432 421.1 170.111C423.382 172.298 425.588 174.561 428.364 176.484C428.972 176.786 429.581 177.314 430.455 177.276C434.258 175.617 438.023 173.693 441.56 171.77L442.32 171.77C445.439 174.108 448.025 176.823 451.524 178.935C451.904 179.237 452.588 179.237 452.893 178.935C455.517 175.202 457.951 171.28 460.156 167.207C462.096 163.474 464.378 159.854 465.975 155.857C466.279 155.706 466.317 155.291 466.431 155.027C466.85 153.858 467.496 152.991 467.914 151.822C468.104 151.407 468.104 150.879 468.409 150.577C469.359 148.051 470.386 145.675 471.185 143.073C472.63 139.378 473.581 135.267 474.569 131.195H474.645C474.607 130.553 474.912 129.271 473.923 129.724C469.283 133.042 463.731 136.285 457.494 137.266C445.439 139.415 433.574 136.323 424.447 130.214L423.914 130.214C423.23 130.516 423.382 131.421 423.572 132.439C424.295 142.658 424.713 149.635 420.644 167.999Z" fill="white"/>
            <path d="M446.694 157.175C447.949 157.59 449.508 156.421 450.155 154.573C450.763 152.763 450.269 150.915 448.976 150.463C447.683 150.01 446.161 151.217 445.515 152.989C444.906 154.875 445.401 156.722 446.694 157.175Z" fill="black"/>
            <path d="M442.549 166.565C443.804 166.98 445.363 165.886 446.009 163.963C446.618 162.153 446.123 160.305 444.83 159.853C443.575 159.438 442.054 160.569 441.408 162.417C440.723 164.302 441.218 166.15 442.549 166.565Z" fill="black"/>
            <path d="M436.92 138.054L434.752 151.215L451.143 143.937L462.476 151.479L468.218 135.905L464.377 137.677L461.182 146.2L451.561 140.204L439.506 145.521L440.076 139.223L436.92 138.054Z" fill="black"/>
            <path d="M418.897 21.0067C421.939 28.247 426.427 34.5069 431.142 40.6158C431.371 40.7667 431.218 41.2192 431.256 41.5586C428.1 42.7276 424.791 43.8212 421.673 45.2541C416.653 47.5922 412.47 50.3827 408.287 53.2487C406.651 53.211 406.385 51.514 405.396 50.6844C401.023 45.3673 396.003 40.465 391.021 35.6004C390.983 35.1856 390.831 35.0348 390.831 34.5823C393.797 31.3392 398.095 29.039 402.126 26.5501C406.803 23.9481 411.861 21.5724 417.147 20.1771C418.098 19.9886 418.631 20.4411 418.897 21.0067Z" fill="white"/>
            <path d="M375.241 56.6083C380.945 61.2089 385.547 66.526 389.882 72.1071C389.996 72.371 390.072 72.5973 390.034 72.9367C389.92 73.2761 389.578 73.6155 389.54 74.0303C389.045 74.5959 388.779 75.3124 388.323 75.8403C387.562 76.142 387.258 75.3878 386.878 75.0861C382.999 70.033 378.321 65.3947 373.491 61.0581C372.959 60.7564 373.263 59.9268 373.225 59.3611L373.301 59.3612C373.415 58.343 373.871 57.7396 374.176 56.91C374.252 56.6083 374.86 56.2312 375.241 56.6083Z" fill="white"/>
            <path d="M412.318 60.189C413.002 61.4711 413.763 62.6779 414.257 63.9977L414.105 64.3748C406.88 67.2407 400.643 71.238 395.091 75.3861H395.015C395.015 74.7827 395.547 74.4057 395.813 73.9154C399.654 67.9196 404.712 62.8287 410.569 58.2281C411.519 58.5675 411.747 59.5479 412.318 60.189Z" fill="black"/>
            <path d="M435.778 71.6871C436.044 71.8003 435.778 72.2151 436.082 72.3659C436.044 72.9316 435.664 73.3086 435.36 73.6857C433.952 73.3464 431.671 72.8938 430.606 74.1006C429.047 75.4958 427.906 77.1551 427.411 79.2291C427.259 79.2291 427.335 79.4554 427.297 79.5685C427.335 80.4359 426.689 80.926 426.993 81.7556C427.069 81.9065 426.879 82.2459 427.183 82.3213C426.841 82.359 427.221 83.0378 426.727 82.7738C426.156 82.1328 425.89 81.3409 425.966 80.3604C425.814 79.8325 426.004 79.0406 425.738 78.5503C426.042 78.1732 425.89 77.5698 425.928 77.0796L426.004 77.0797C426.309 74.6662 427.64 73.0447 429.199 71.4986C430.91 70.1787 434.561 69.7262 435.778 71.6871Z" fill="black"/>
            <path d="M472.743 74.7785C473.2 75.1556 473.01 76.0229 473.048 76.7394C472.515 77.4182 471.945 78.0593 471.032 78.361C470.158 78.5495 469.283 78.4364 468.674 77.9838C468.142 77.3051 467.533 76.7017 467.61 75.6459H467.686C467.762 74.6654 468.332 74.1752 469.017 73.6472C469.587 73.3833 470.386 73.0439 471.07 73.3456C471.755 73.6472 472.325 74.2883 472.743 74.7785Z" fill="black"/>
            <path d="M442.166 88.0519L442.28 89.5979C442.014 89.7865 442.014 89.9373 442.014 90.239C441.557 90.9178 440.873 91.5211 439.922 91.7851C438.439 92.0491 437.298 91.2195 436.309 90.5407C436.081 89.7111 435.511 89.2208 435.739 88.0895C435.929 87.7501 436.043 87.4862 436.157 87.1468C436.651 86.3549 437.716 85.8269 438.857 85.7515C440.492 85.7138 441.785 86.7698 442.166 88.0519Z" fill="black"/>
            <path d="M411.899 92.6567C410.34 93.9766 408.21 94.8062 406.537 96.0129C405.51 96.2015 405.472 95.2587 405.016 94.8816V94.58C406.613 93.3733 408.476 92.1288 410.568 91.3369C411.29 91.5255 411.595 92.2042 411.899 92.6567Z" fill="black"/>
            <path d="M413.917 96.3899C411.521 97.4835 409.392 98.992 407.11 100.199C406.539 99.8593 406.007 99.4067 405.931 98.7279C407.566 97.031 410.114 95.862 412.358 94.7684C413.309 94.957 413.727 95.598 413.917 96.3899Z" fill="black"/>
            <path fill-rule="evenodd" clip-rule="evenodd" d="M381.446 171C381.574 171.319 381.705 171.638 381.84 171.956C384.603 178.369 388.352 183.993 393.088 188.828C397.923 193.662 403.547 197.461 409.96 200.224C416.472 202.986 423.477 204.368 430.976 204.368C438.376 204.368 445.283 202.986 451.696 200.224C458.208 197.461 463.832 193.712 468.568 188.976C473.403 184.141 477.201 178.517 479.964 172.104C480.125 171.737 480.282 171.369 480.434 171H464.329C462.588 174.064 460.499 176.849 458.06 179.356C454.508 182.908 450.364 185.769 445.628 187.94C440.991 190.012 436.107 191.048 430.976 191.048C425.747 191.048 420.764 190.012 416.028 187.94C411.391 185.769 407.296 182.908 403.744 179.356C401.306 176.849 399.216 174.064 397.475 171H381.446Z" fill="white"/>
            <defs>
            <clipPath id="clip0_340_2444">
            <path d="M4 96C4 89.3726 9.37258 84 16 84H383V219H16C9.37259 219 4 213.627 4 207V96Z" fill="white"/>
            </clipPath>
            </defs>
            </svg>