<svg width="157" height="244" viewBox="0 0 157 244" fill="none" xmlns="http://www.w3.org/2000/svg">
<rect width="157" height="244" fill="white"/>
<rect x="9" y="9" width="139" height="226" stroke="black"/>
<path d="M87.6706 47.8184C86.8904 43.1716 90.5004 38.9416 95.2461 38.9416H107.3V42.7533C107.3 42.7533 100.221 48.8547 99.6202 54.1886C99.0269 59.4552 104.42 66.8945 104.42 66.8945L104.42 69.4357H100.901C101.704 70.4975 102.18 71.8173 102.18 73.2474C102.18 76.7561 99.3148 79.6004 95.7802 79.6004C92.2456 79.6004 89.3802 76.7561 89.3802 73.2474C89.3802 71.8173 89.8563 70.4975 90.6597 69.4357H77.2207C78.0241 70.4975 78.5002 71.8173 78.5002 73.2474C78.5002 76.7561 75.6348 79.6004 72.1002 79.6004C68.5656 79.6004 65.7002 76.7561 65.7002 73.2474C65.7002 71.8173 66.1763 70.4975 66.9797 69.4357H65.0602L59.9402 79.6004H49.7002L59.9402 69.4357C55.6986 69.4357 52.2602 66.0225 52.2602 61.8122C52.2602 57.6018 55.6986 54.1886 59.9402 54.1886L54.8202 38.9416L57.3802 36.4004H67.6202L70.1802 38.9416L65.0602 54.1886H88.7402L87.6706 47.8184Z" fill="black"/>
<path d="M33.0767 110.768C34.1007 110.768 34.8887 110.952 35.4407 111.32C36.0007 111.68 36.2807 112.216 36.2807 112.928C36.2807 113.336 36.1807 113.692 35.9807 113.996C35.7807 114.3 35.5207 114.52 35.2007 114.656V114.68C35.5687 114.824 35.8807 115.072 36.1367 115.424C36.3927 115.776 36.5207 116.204 36.5207 116.708C36.5207 117.452 36.2527 118.02 35.7167 118.412C35.1887 118.804 34.4807 119 33.5927 119H30.7247V110.768H33.0767ZM32.7647 114.044H33.2927C33.6127 114.044 33.8487 113.968 34.0007 113.816C34.1607 113.656 34.2407 113.448 34.2407 113.192C34.2407 113 34.1807 112.832 34.0607 112.688C33.9887 112.6 33.8807 112.528 33.7367 112.472C33.6007 112.416 33.3967 112.388 33.1247 112.388H32.7647V114.044ZM32.7647 117.38H33.1727C33.5567 117.38 33.8407 117.34 34.0247 117.26C34.2087 117.18 34.3287 117.076 34.3847 116.948C34.4487 116.82 34.4807 116.684 34.4807 116.54C34.4807 116.268 34.4007 116.056 34.2407 115.904C34.0807 115.744 33.7687 115.664 33.3047 115.664H32.7647V117.38ZM38.4727 116.408L39.8767 117.788L38.4727 119.168L37.0687 117.788L38.4727 116.408ZM49.8684 112.652C49.8684 113.004 49.7404 113.348 49.4844 113.684C49.2364 114.02 48.8844 114.316 48.4284 114.572L49.3644 115.628L50.5284 114.62L51.6204 115.844L50.4924 116.888L51.6564 118.184L50.3004 119.276L49.2204 118.004C48.8524 118.348 48.4684 118.632 48.0684 118.856C47.6684 119.08 47.2084 119.192 46.6884 119.192C46.3124 119.192 45.9684 119.128 45.6564 119C45.3524 118.872 45.0884 118.692 44.8644 118.46C44.6404 118.228 44.4684 117.952 44.3484 117.632C44.2284 117.312 44.1684 116.96 44.1684 116.576C44.1684 116.04 44.3204 115.564 44.6244 115.148C44.9284 114.732 45.3564 114.416 45.9084 114.2C45.8124 114.144 45.7204 114.064 45.6324 113.96C45.5444 113.848 45.4684 113.728 45.4044 113.6C45.3484 113.464 45.3004 113.32 45.2604 113.168C45.2284 113.016 45.2124 112.868 45.2124 112.724C45.2124 112.396 45.2684 112.1 45.3804 111.836C45.4924 111.572 45.6484 111.348 45.8484 111.164C46.0564 110.972 46.2964 110.828 46.5684 110.732C46.8484 110.628 47.1564 110.576 47.4924 110.576C47.8364 110.576 48.1524 110.632 48.4404 110.744C48.7364 110.848 48.9884 110.992 49.1964 111.176C49.4124 111.36 49.5764 111.58 49.6884 111.836C49.8084 112.084 49.8684 112.356 49.8684 112.652ZM47.3364 113.336C47.6564 113.184 47.8684 113.048 47.9724 112.928C48.0764 112.808 48.1284 112.664 48.1284 112.496C48.1284 112.36 48.0684 112.236 47.9484 112.124C47.8364 112.012 47.6924 111.956 47.5164 111.956C47.3404 111.956 47.2004 112.024 47.0964 112.16C47.0004 112.288 46.9524 112.436 46.9524 112.604C46.9524 112.74 46.9884 112.876 47.0604 113.012C47.1404 113.14 47.2324 113.248 47.3364 113.336ZM46.9884 117.452C47.2444 117.452 47.4604 117.388 47.6364 117.26C47.8204 117.132 47.9924 116.992 48.1524 116.84L48.2124 116.78L47.0124 115.484C46.7804 115.636 46.5884 115.8 46.4364 115.976C46.2844 116.144 46.2084 116.36 46.2084 116.624C46.2084 116.824 46.2804 117.012 46.4244 117.188C46.5764 117.364 46.7644 117.452 46.9884 117.452ZM60.1524 119.192C59.5604 119.192 58.9964 119.084 58.4604 118.868C57.9324 118.644 57.4684 118.34 57.0684 117.956C56.6684 117.564 56.3484 117.108 56.1084 116.588C55.8764 116.06 55.7604 115.492 55.7604 114.884C55.7604 114.292 55.8764 113.736 56.1084 113.216C56.3404 112.688 56.6524 112.232 57.0444 111.848C57.4444 111.456 57.9084 111.148 58.4364 110.924C58.9724 110.692 59.5444 110.576 60.1524 110.576C60.7444 110.576 61.3044 110.688 61.8324 110.912C62.3684 111.128 62.8364 111.432 63.2364 111.824C63.6364 112.208 63.9524 112.664 64.1844 113.192C64.4244 113.712 64.5444 114.276 64.5444 114.884C64.5444 115.476 64.4284 116.036 64.1964 116.564C63.9644 117.084 63.6484 117.54 63.2484 117.932C62.8564 118.324 62.3924 118.632 61.8564 118.856C61.3284 119.08 60.7604 119.192 60.1524 119.192ZM60.1524 117.32C60.4724 117.32 60.7764 117.252 61.0644 117.116C61.3524 116.98 61.6004 116.8 61.8084 116.576C62.0244 116.352 62.1924 116.092 62.3124 115.796C62.4404 115.5 62.5044 115.196 62.5044 114.884C62.5044 114.572 62.4404 114.272 62.3124 113.984C62.1924 113.688 62.0244 113.428 61.8084 113.204C61.6004 112.972 61.3524 112.788 61.0644 112.652C60.7764 112.516 60.4684 112.448 60.1404 112.448C59.8204 112.448 59.5164 112.516 59.2284 112.652C58.9484 112.788 58.7004 112.968 58.4844 113.192C58.2764 113.416 58.1084 113.676 57.9804 113.972C57.8604 114.26 57.8004 114.564 57.8004 114.884C57.8004 115.196 57.8604 115.5 57.9804 115.796C58.1084 116.092 58.2764 116.352 58.4844 116.576C58.7004 116.8 58.9484 116.98 59.2284 117.116C59.5164 117.252 59.8244 117.32 60.1524 117.32ZM66.4922 116.408L67.8962 117.788L66.4922 119.168L65.0882 117.788L66.4922 116.408ZM74.3119 110.768C75.3599 110.768 76.1679 110.976 76.7359 111.392C77.3039 111.808 77.5879 112.448 77.5879 113.312C77.5879 113.544 77.5559 113.772 77.4919 113.996C77.4279 114.212 77.3359 114.412 77.2159 114.596C77.0959 114.78 76.9519 114.944 76.7839 115.088C76.6239 115.224 76.4479 115.328 76.2559 115.4L78.4759 118.532L76.4119 119.192L74.0119 115.304H73.9879V118.904L71.9479 119.096V110.768H74.3119ZM73.9879 114.812C74.0279 114.82 74.0679 114.824 74.1079 114.824C74.1479 114.824 74.1879 114.824 74.2279 114.824C74.3879 114.824 74.5479 114.808 74.7079 114.776C74.8679 114.736 75.0079 114.672 75.1279 114.584C75.2559 114.488 75.3559 114.364 75.4279 114.212C75.5079 114.052 75.5479 113.852 75.5479 113.612C75.5479 113.324 75.4719 113.08 75.3199 112.88C75.1759 112.68 74.9039 112.56 74.5039 112.52C74.4239 112.512 74.3399 112.508 74.2519 112.508C74.1719 112.508 74.0839 112.508 73.9879 112.508V114.812ZM82.1439 110.576H82.1679L86.6079 118.772L84.5319 119.192L83.6919 117.428H80.5599L79.7319 119.192L77.7519 118.772L82.1439 110.576ZM81.0519 115.904H83.2359L82.1439 113.888L81.0519 115.904ZM88.8638 118.904L86.8238 119.096V110.768L88.8638 110.576V118.904ZM92.1916 117.128H94.8916L94.3516 119H90.1516V110.768L92.1916 110.576V117.128ZM97.6557 110.768C98.7037 110.768 99.5117 110.976 100.08 111.392C100.648 111.808 100.932 112.448 100.932 113.312C100.932 113.544 100.9 113.772 100.836 113.996C100.772 114.212 100.68 114.412 100.56 114.596C100.44 114.78 100.296 114.944 100.128 115.088C99.9677 115.224 99.7917 115.328 99.5997 115.4L101.82 118.532L99.7557 119.192L97.3557 115.304H97.3317V118.904L95.2917 119.096V110.768H97.6557ZM97.3317 114.812C97.3717 114.82 97.4117 114.824 97.4517 114.824C97.4917 114.824 97.5317 114.824 97.5717 114.824C97.7317 114.824 97.8917 114.808 98.0517 114.776C98.2117 114.736 98.3517 114.672 98.4717 114.584C98.5997 114.488 98.6997 114.364 98.7717 114.212C98.8517 114.052 98.8917 113.852 98.8917 113.612C98.8917 113.324 98.8157 113.08 98.6637 112.88C98.5197 112.68 98.2477 112.56 97.8477 112.52C97.7677 112.512 97.6837 112.508 97.5957 112.508C97.5157 112.508 97.4277 112.508 97.3317 112.508V114.812ZM106.184 119.192C105.592 119.192 105.028 119.084 104.492 118.868C103.964 118.644 103.5 118.34 103.1 117.956C102.7 117.564 102.38 117.108 102.14 116.588C101.908 116.06 101.792 115.492 101.792 114.884C101.792 114.292 101.908 113.736 102.14 113.216C102.372 112.688 102.684 112.232 103.076 111.848C103.476 111.456 103.94 111.148 104.468 110.924C105.004 110.692 105.576 110.576 106.184 110.576C106.776 110.576 107.336 110.688 107.864 110.912C108.4 111.128 108.868 111.432 109.268 111.824C109.668 112.208 109.984 112.664 110.216 113.192C110.456 113.712 110.576 114.276 110.576 114.884C110.576 115.476 110.46 116.036 110.228 116.564C109.996 117.084 109.68 117.54 109.28 117.932C108.888 118.324 108.424 118.632 107.888 118.856C107.36 119.08 106.792 119.192 106.184 119.192ZM106.184 117.32C106.504 117.32 106.808 117.252 107.096 117.116C107.384 116.98 107.632 116.8 107.84 116.576C108.056 116.352 108.224 116.092 108.344 115.796C108.472 115.5 108.536 115.196 108.536 114.884C108.536 114.572 108.472 114.272 108.344 113.984C108.224 113.688 108.056 113.428 107.84 113.204C107.632 112.972 107.384 112.788 107.096 112.652C106.808 112.516 106.5 112.448 106.172 112.448C105.852 112.448 105.548 112.516 105.26 112.652C104.98 112.788 104.732 112.968 104.516 113.192C104.308 113.416 104.14 113.676 104.012 113.972C103.892 114.26 103.832 114.564 103.832 114.884C103.832 115.196 103.892 115.5 104.012 115.796C104.14 116.092 104.308 116.352 104.516 116.576C104.732 116.8 104.98 116.98 105.26 117.116C105.548 117.252 105.856 117.32 106.184 117.32ZM114.827 110.576H114.851L119.291 118.772L117.215 119.192L116.375 117.428H113.243L112.415 119.192L110.435 118.772L114.827 110.576ZM113.735 115.904H115.919L114.827 113.888L113.735 115.904ZM122.375 110.768C122.951 110.768 123.495 110.876 124.007 111.092C124.519 111.3 124.963 111.588 125.339 111.956C125.723 112.324 126.023 112.76 126.239 113.264C126.463 113.768 126.575 114.308 126.575 114.884C126.575 115.484 126.459 116.036 126.227 116.54C125.995 117.044 125.687 117.48 125.303 117.848C124.919 118.208 124.475 118.492 123.971 118.7C123.467 118.9 122.939 119 122.387 119H119.495V110.768H122.375ZM121.535 117.26H122.147C122.467 117.26 122.771 117.2 123.059 117.08C123.347 116.96 123.599 116.792 123.815 116.576C124.039 116.36 124.215 116.108 124.343 115.82C124.471 115.532 124.535 115.22 124.535 114.884C124.535 114.572 124.475 114.276 124.355 113.996C124.235 113.708 124.067 113.456 123.851 113.24C123.643 113.016 123.391 112.84 123.095 112.712C122.807 112.576 122.495 112.508 122.159 112.508H121.535V117.26Z" fill="black"/>
<path d="M16.524 145.826C16.8 145.826 17.061 145.865 17.307 145.943C17.553 146.015 17.769 146.129 17.955 146.285C18.141 146.441 18.288 146.636 18.396 146.87C18.504 147.104 18.558 147.38 18.558 147.698C18.558 148.166 18.435 148.529 18.189 148.787C17.943 149.039 17.61 149.213 17.19 149.309L19.053 151.892L18.063 152.144L15.912 149.003H15.894V152L15.012 152.108V145.826H16.524ZM16.542 148.805C16.686 148.805 16.827 148.778 16.965 148.724C17.103 148.67 17.223 148.595 17.325 148.499C17.433 148.403 17.517 148.289 17.577 148.157C17.643 148.019 17.676 147.866 17.676 147.698C17.676 147.512 17.646 147.353 17.586 147.221C17.526 147.083 17.445 146.972 17.343 146.888C17.241 146.804 17.121 146.741 16.983 146.699C16.851 146.657 16.707 146.636 16.551 146.636H15.894V148.805H16.542ZM22.896 145.826L23.085 146.636H20.484V148.382H22.563V149.192H20.484V151.19H23.283L23.031 152H19.602V145.826H22.896ZM24.075 145.682L24.102 145.691L28.053 150.002V145.97L28.935 145.826V152.144L28.908 152.135L24.957 147.824V152L24.075 152.108V145.682ZM33.381 145.826V146.636H31.941V152L31.059 152.108V146.636H29.457L29.736 145.826H33.381Z" fill="black"/>
<path d="M125.902 145.682H125.92L128.017 150.713L130.096 145.682H130.114L131.356 152L130.798 152.072L129.916 147.5H129.898L128.026 152.144H128.008L126.064 147.5H126.046L125.2 152.072L124.642 152L125.902 145.682Z" fill="black"/>
<path fill-rule="evenodd" clip-rule="evenodd" d="M131.283 148.3H124.717L124.613 148.8H131.388L131.283 148.3ZM131.521 149.442H124.479L124.375 149.942H131.626L131.521 149.442Z" fill="black"/>
<path d="M136.99 147.608C136.99 147.848 136.945 148.088 136.855 148.328C136.765 148.568 136.651 148.802 136.513 149.03C136.375 149.252 136.222 149.465 136.054 149.669C135.886 149.873 135.724 150.059 135.568 150.227L134.659 151.19H137.089L136.927 152H132.886L135.352 149.138C135.442 149.036 135.532 148.922 135.622 148.796C135.712 148.67 135.793 148.541 135.865 148.409C135.937 148.271 135.994 148.136 136.036 148.004C136.084 147.866 136.108 147.734 136.108 147.608C136.108 147.26 136 146.987 135.784 146.789C135.568 146.591 135.28 146.492 134.92 146.492C134.746 146.492 134.587 146.522 134.443 146.582C134.299 146.642 134.173 146.726 134.065 146.834C133.957 146.936 133.873 147.056 133.813 147.194C133.753 147.332 133.723 147.479 133.723 147.635C133.723 148.031 133.822 148.343 134.02 148.571C134.224 148.793 134.479 148.919 134.785 148.949L134.227 149.651C133.831 149.525 133.513 149.285 133.273 148.931C133.033 148.577 132.913 148.136 132.913 147.608C132.913 147.326 132.964 147.068 133.066 146.834C133.174 146.6 133.321 146.399 133.507 146.231C133.693 146.057 133.912 145.922 134.164 145.826C134.416 145.73 134.692 145.682 134.992 145.682C135.274 145.682 135.535 145.727 135.775 145.817C136.021 145.907 136.234 146.036 136.414 146.204C136.594 146.372 136.735 146.576 136.837 146.816C136.939 147.05 136.99 147.314 136.99 147.608ZM141.649 145.826L141.433 146.636H139.273V147.905C139.471 147.845 139.672 147.815 139.876 147.815C140.164 147.815 140.437 147.875 140.695 147.995C140.953 148.109 141.181 148.265 141.379 148.463C141.577 148.661 141.733 148.892 141.847 149.156C141.961 149.414 142.018 149.687 142.018 149.975C142.018 150.293 141.955 150.584 141.829 150.848C141.709 151.112 141.541 151.34 141.325 151.532C141.109 151.724 140.857 151.874 140.569 151.982C140.281 152.09 139.972 152.144 139.642 152.144C139.228 152.144 138.871 152.063 138.571 151.901C138.271 151.739 137.992 151.502 137.734 151.19L138.454 150.704C138.598 150.878 138.769 151.028 138.967 151.154C139.165 151.274 139.378 151.334 139.606 151.334C139.81 151.334 140.002 151.304 140.182 151.244C140.368 151.184 140.53 151.097 140.668 150.983C140.812 150.869 140.926 150.728 141.01 150.56C141.094 150.386 141.136 150.191 141.136 149.975C141.136 149.777 141.097 149.597 141.019 149.435C140.941 149.267 140.833 149.123 140.695 149.003C140.563 148.883 140.404 148.79 140.218 148.724C140.038 148.658 139.846 148.625 139.642 148.625C139.402 148.625 139.177 148.673 138.967 148.769C138.757 148.859 138.565 148.982 138.391 149.138V145.826H141.649Z" fill="black"/>
<path d="M15.9302 173L15.0482 173.072V166.826L15.9302 166.682V173ZM19.2664 167.456C19.1104 167.42 18.9634 167.402 18.8254 167.402C18.5014 167.402 18.2644 167.483 18.1144 167.645C17.9644 167.801 17.8894 168.068 17.8894 168.446H19.0414V169.211H17.8894V173L17.0254 173.144V169.211H16.4314L16.6834 168.446H17.0254V168.365C17.0254 168.089 17.0614 167.846 17.1334 167.636C17.2054 167.42 17.3194 167.24 17.4754 167.096C17.6314 166.946 17.8354 166.832 18.0874 166.754C18.3394 166.676 18.6424 166.637 18.9964 166.637L19.2664 167.456ZM25.9861 168.608C25.9861 168.848 25.9411 169.088 25.8511 169.328C25.7611 169.568 25.6471 169.802 25.5091 170.03C25.3711 170.252 25.2181 170.465 25.0501 170.669C24.8821 170.873 24.7201 171.059 24.5641 171.227L23.6551 172.19H26.0851L25.9231 173H21.8821L24.3481 170.138C24.4381 170.036 24.5281 169.922 24.6181 169.796C24.7081 169.67 24.7891 169.541 24.8611 169.409C24.9331 169.271 24.9901 169.136 25.0321 169.004C25.0801 168.866 25.1041 168.734 25.1041 168.608C25.1041 168.26 24.9961 167.987 24.7801 167.789C24.5641 167.591 24.2761 167.492 23.9161 167.492C23.7421 167.492 23.5831 167.522 23.4391 167.582C23.2951 167.642 23.1691 167.726 23.0611 167.834C22.9531 167.936 22.8691 168.056 22.8091 168.194C22.7491 168.332 22.7191 168.479 22.7191 168.635C22.7191 169.031 22.8181 169.343 23.0161 169.571C23.2201 169.793 23.4751 169.919 23.7811 169.949L23.2231 170.651C22.8271 170.525 22.5091 170.285 22.2691 169.931C22.0291 169.577 21.9091 169.136 21.9091 168.608C21.9091 168.326 21.9601 168.068 22.0621 167.834C22.1701 167.6 22.3171 167.399 22.5031 167.231C22.6891 167.057 22.9081 166.922 23.1601 166.826C23.4121 166.73 23.6881 166.682 23.9881 166.682C24.2701 166.682 24.5311 166.727 24.7711 166.817C25.0171 166.907 25.2301 167.036 25.4101 167.204C25.5901 167.372 25.7311 167.576 25.8331 167.816C25.9351 168.05 25.9861 168.314 25.9861 168.608ZM32.484 168.176C32.244 167.912 32.031 167.732 31.845 167.636C31.659 167.54 31.476 167.492 31.296 167.492C31.008 167.492 30.774 167.576 30.594 167.744C30.414 167.912 30.324 168.143 30.324 168.437C30.324 168.575 30.354 168.695 30.414 168.797C30.48 168.893 30.567 168.98 30.675 169.058C30.789 169.136 30.924 169.208 31.08 169.274C31.236 169.334 31.407 169.4 31.593 169.472C31.815 169.556 32.019 169.646 32.205 169.742C32.397 169.838 32.562 169.955 32.7 170.093C32.838 170.231 32.946 170.396 33.024 170.588C33.108 170.774 33.15 170.999 33.15 171.263C33.15 171.545 33.099 171.8 32.997 172.028C32.895 172.256 32.757 172.454 32.583 172.622C32.409 172.79 32.205 172.919 31.971 173.009C31.743 173.099 31.497 173.144 31.233 173.144C31.059 173.144 30.894 173.126 30.738 173.09C30.582 173.06 30.426 173.006 30.27 172.928C30.12 172.85 29.964 172.748 29.802 172.622C29.646 172.49 29.484 172.331 29.316 172.145L29.964 171.605C30.09 171.803 30.255 171.974 30.459 172.118C30.663 172.262 30.891 172.334 31.143 172.334C31.299 172.334 31.443 172.316 31.575 172.28C31.713 172.238 31.833 172.175 31.935 172.091C32.037 172.007 32.118 171.896 32.178 171.758C32.238 171.62 32.268 171.452 32.268 171.254C32.268 171.14 32.226 171.035 32.142 170.939C32.058 170.837 31.953 170.747 31.827 170.669C31.707 170.591 31.581 170.522 31.449 170.462C31.317 170.396 31.203 170.339 31.107 170.291C30.909 170.195 30.711 170.093 30.513 169.985C30.315 169.871 30.135 169.742 29.973 169.598C29.817 169.454 29.688 169.289 29.586 169.103C29.49 168.911 29.442 168.683 29.442 168.419C29.442 168.161 29.487 167.927 29.577 167.717C29.667 167.501 29.793 167.318 29.955 167.168C30.123 167.012 30.324 166.892 30.558 166.808C30.792 166.724 31.053 166.682 31.341 166.682C31.647 166.682 31.956 166.757 32.268 166.907C32.58 167.057 32.85 167.282 33.078 167.582L32.484 168.176ZM35.13 168.446H36.345V169.211H35.13V171.659C35.13 171.785 35.142 171.893 35.166 171.983C35.19 172.073 35.232 172.148 35.292 172.208C35.352 172.268 35.433 172.313 35.535 172.343C35.643 172.367 35.778 172.379 35.94 172.379C36.042 172.379 36.138 172.373 36.228 172.361C36.318 172.349 36.414 172.337 36.516 172.325L36.363 173.108C36.333 173.108 36.264 173.114 36.156 173.126C36.054 173.138 35.901 173.144 35.697 173.144C35.463 173.144 35.256 173.105 35.076 173.027C34.902 172.949 34.755 172.847 34.635 172.721C34.515 172.595 34.422 172.451 34.356 172.289C34.296 172.121 34.266 171.95 34.266 171.776V169.211H33.555L33.861 168.446H34.266V167.33L35.13 167.123V168.446ZM40.539 173L39.765 173.144V172.514H39.747C39.681 172.64 39.597 172.745 39.495 172.829C39.399 172.913 39.291 172.976 39.171 173.018C39.057 173.066 38.931 173.099 38.793 173.117C38.661 173.135 38.529 173.144 38.397 173.144C38.145 173.144 37.914 173.099 37.704 173.009C37.5 172.925 37.323 172.805 37.173 172.649C37.023 172.487 36.906 172.298 36.822 172.082C36.744 171.866 36.705 171.629 36.705 171.371C36.705 171.137 36.753 170.921 36.849 170.723C36.945 170.525 37.074 170.354 37.236 170.21C37.404 170.066 37.596 169.955 37.812 169.877C38.034 169.799 38.271 169.76 38.523 169.76C38.733 169.76 38.937 169.793 39.135 169.859C39.339 169.925 39.519 170.039 39.675 170.201V169.886C39.675 169.718 39.654 169.583 39.612 169.481C39.57 169.379 39.504 169.301 39.414 169.247C39.33 169.193 39.219 169.157 39.081 169.139C38.943 169.121 38.778 169.112 38.586 169.112C38.4 169.112 38.193 169.127 37.965 169.157C37.737 169.181 37.503 169.253 37.263 169.373L37.497 168.482C37.713 168.434 37.929 168.392 38.145 168.356C38.361 168.32 38.562 168.302 38.748 168.302C39.39 168.302 39.849 168.443 40.125 168.725C40.401 169.007 40.539 169.427 40.539 169.985V173ZM38.559 172.334C38.937 172.334 39.216 172.25 39.396 172.082C39.582 171.914 39.675 171.677 39.675 171.371C39.675 171.119 39.579 170.915 39.387 170.759C39.195 170.603 38.937 170.525 38.613 170.525C38.307 170.525 38.055 170.603 37.857 170.759C37.665 170.909 37.569 171.113 37.569 171.371C37.569 171.695 37.656 171.938 37.83 172.1C38.01 172.256 38.253 172.334 38.559 172.334ZM42.627 168.446H43.842V169.211H42.627V171.659C42.627 171.785 42.639 171.893 42.663 171.983C42.687 172.073 42.729 172.148 42.789 172.208C42.849 172.268 42.93 172.313 43.032 172.343C43.14 172.367 43.275 172.379 43.437 172.379C43.539 172.379 43.635 172.373 43.725 172.361C43.815 172.349 43.911 172.337 44.013 172.325L43.86 173.108C43.83 173.108 43.761 173.114 43.653 173.126C43.551 173.138 43.398 173.144 43.194 173.144C42.96 173.144 42.753 173.105 42.573 173.027C42.399 172.949 42.252 172.847 42.132 172.721C42.012 172.595 41.919 172.451 41.853 172.289C41.793 172.121 41.763 171.95 41.763 171.776V169.211H41.052L41.358 168.446H41.763V167.33L42.627 167.123V168.446ZM44.9851 166.565L45.5611 167.249L45.0031 167.924L44.4271 167.249L44.9851 166.565ZM45.4261 173L44.5621 173.144V168.446L45.4261 168.302V173ZM48.7352 173.144C48.3872 173.144 48.0632 173.081 47.7632 172.955C47.4632 172.829 47.2022 172.655 46.9802 172.433C46.7582 172.211 46.5812 171.956 46.4492 171.668C46.3232 171.374 46.2602 171.059 46.2602 170.723C46.2602 170.387 46.3232 170.072 46.4492 169.778C46.5812 169.484 46.7582 169.229 46.9802 169.013C47.2022 168.791 47.4632 168.617 47.7632 168.491C48.0692 168.365 48.3932 168.302 48.7352 168.302C49.0832 168.302 49.4072 168.368 49.7072 168.5C50.0132 168.626 50.2772 168.8 50.4992 169.022C50.7212 169.238 50.8952 169.493 51.0212 169.787C51.1532 170.081 51.2192 170.393 51.2192 170.723C51.2192 171.053 51.1562 171.365 51.0302 171.659C50.9042 171.953 50.7272 172.211 50.4992 172.433C50.2772 172.649 50.0132 172.823 49.7072 172.955C49.4072 173.081 49.0832 173.144 48.7352 173.144ZM48.7352 172.334C48.9632 172.334 49.1762 172.292 49.3742 172.208C49.5722 172.118 49.7432 172.001 49.8872 171.857C50.0312 171.707 50.1452 171.536 50.2292 171.344C50.3132 171.146 50.3552 170.939 50.3552 170.723C50.3552 170.507 50.3132 170.303 50.2292 170.111C50.1512 169.919 50.0402 169.748 49.8962 169.598C49.7522 169.448 49.5782 169.331 49.3742 169.247C49.1762 169.157 48.9602 169.112 48.7262 169.112C48.5042 169.112 48.2942 169.154 48.0962 169.238C47.9042 169.322 47.7362 169.439 47.5922 169.589C47.4482 169.733 47.3342 169.904 47.2502 170.102C47.1662 170.294 47.1242 170.501 47.1242 170.723C47.1242 170.939 47.1632 171.146 47.2412 171.344C47.3252 171.536 47.4392 171.707 47.5832 171.857C47.7272 172.001 47.8982 172.118 48.0962 172.208C48.2942 172.292 48.5072 172.334 48.7352 172.334ZM52.8422 168.977H52.8602C52.9922 168.743 53.1812 168.572 53.4272 168.464C53.6792 168.356 53.9402 168.302 54.2102 168.302C54.7562 168.302 55.1912 168.44 55.5152 168.716C55.8392 168.992 56.0012 169.373 56.0012 169.859V173L55.1372 173.144V169.931C55.1372 169.661 55.0502 169.451 54.8762 169.301C54.7022 169.145 54.4532 169.067 54.1292 169.067C53.7452 169.067 53.4332 169.187 53.1932 169.427C52.9592 169.667 52.8422 170 52.8422 170.426V173L51.9782 173.144V168.446L52.8422 168.302V168.977ZM59.1482 169.508C59.1122 169.466 59.0672 169.421 59.0132 169.373C58.9592 169.319 58.8962 169.271 58.8242 169.229C58.7522 169.181 58.6742 169.142 58.5902 169.112C58.5062 169.082 58.4132 169.067 58.3112 169.067C58.1432 169.067 58.0112 169.088 57.9152 169.13C57.8192 169.166 57.7442 169.211 57.6902 169.265C57.6422 169.319 57.6092 169.379 57.5912 169.445C57.5792 169.505 57.5732 169.562 57.5732 169.616C57.5732 169.808 57.6422 169.952 57.7802 170.048C57.9182 170.138 58.1072 170.213 58.3472 170.273C58.5272 170.321 58.7042 170.372 58.8782 170.426C59.0522 170.48 59.2082 170.558 59.3462 170.66C59.4842 170.756 59.5952 170.888 59.6792 171.056C59.7692 171.224 59.8142 171.443 59.8142 171.713C59.8142 171.899 59.7782 172.079 59.7062 172.253C59.6342 172.427 59.5262 172.58 59.3822 172.712C59.2442 172.844 59.0762 172.949 58.8782 173.027C58.6802 173.105 58.4552 173.144 58.2032 173.144C57.8912 173.144 57.6032 173.084 57.3392 172.964C57.0812 172.844 56.8472 172.649 56.6372 172.379L57.2312 171.875C57.3632 172.031 57.5012 172.154 57.6452 172.244C57.7892 172.334 57.9692 172.379 58.1852 172.379C58.3952 172.379 58.5752 172.328 58.7252 172.226C58.8752 172.124 58.9502 171.98 58.9502 171.794C58.9502 171.566 58.8662 171.398 58.6982 171.29C58.5302 171.176 58.2632 171.074 57.8972 170.984C57.7292 170.942 57.5732 170.894 57.4292 170.84C57.2852 170.78 57.1592 170.705 57.0512 170.615C56.9432 170.519 56.8592 170.402 56.7992 170.264C56.7392 170.12 56.7092 169.946 56.7092 169.742C56.7092 169.532 56.7452 169.34 56.8172 169.166C56.8952 168.986 57.0002 168.833 57.1322 168.707C57.2642 168.581 57.4202 168.482 57.6002 168.41C57.7802 168.338 57.9752 168.302 58.1852 168.302C58.4972 168.302 58.7612 168.353 58.9772 168.455C59.1992 168.551 59.4272 168.713 59.6612 168.941L59.1482 169.508ZM66.5371 173L65.7631 173.144V172.514H65.7451C65.6791 172.64 65.5951 172.745 65.4931 172.829C65.3971 172.913 65.2891 172.976 65.1691 173.018C65.0551 173.066 64.9291 173.099 64.7911 173.117C64.6591 173.135 64.5271 173.144 64.3951 173.144C64.1431 173.144 63.9121 173.099 63.7021 173.009C63.4981 172.925 63.3211 172.805 63.1711 172.649C63.0211 172.487 62.9041 172.298 62.8201 172.082C62.7421 171.866 62.7031 171.629 62.7031 171.371C62.7031 171.137 62.7511 170.921 62.8471 170.723C62.9431 170.525 63.0721 170.354 63.2341 170.21C63.4021 170.066 63.5941 169.955 63.8101 169.877C64.0321 169.799 64.2691 169.76 64.5211 169.76C64.7311 169.76 64.9351 169.793 65.1331 169.859C65.3371 169.925 65.5171 170.039 65.6731 170.201V169.886C65.6731 169.718 65.6521 169.583 65.6101 169.481C65.5681 169.379 65.5021 169.301 65.4121 169.247C65.3281 169.193 65.2171 169.157 65.0791 169.139C64.9411 169.121 64.7761 169.112 64.5841 169.112C64.3981 169.112 64.1911 169.127 63.9631 169.157C63.7351 169.181 63.5011 169.253 63.2611 169.373L63.4951 168.482C63.7111 168.434 63.9271 168.392 64.1431 168.356C64.3591 168.32 64.5601 168.302 64.7461 168.302C65.3881 168.302 65.8471 168.443 66.1231 168.725C66.3991 169.007 66.5371 169.427 66.5371 169.985V173ZM64.5571 172.334C64.9351 172.334 65.2141 172.25 65.3941 172.082C65.5801 171.914 65.6731 171.677 65.6731 171.371C65.6731 171.119 65.5771 170.915 65.3851 170.759C65.1931 170.603 64.9351 170.525 64.6111 170.525C64.3051 170.525 64.0531 170.603 63.8551 170.759C63.6631 170.909 63.5671 171.113 63.5671 171.371C63.5671 171.695 63.6541 171.938 63.8281 172.1C64.0081 172.256 64.2511 172.334 64.5571 172.334ZM69.7861 169.148H69.6961C69.4921 169.148 69.3061 169.19 69.1381 169.274C68.9701 169.352 68.8261 169.466 68.7061 169.616C68.5921 169.76 68.5021 169.934 68.4361 170.138C68.3761 170.342 68.3461 170.567 68.3461 170.813V173L67.4821 173.144V168.446L68.2921 168.302V169.283H68.3101C68.4661 168.959 68.6551 168.713 68.8771 168.545C69.0991 168.371 69.3901 168.284 69.7501 168.284H70.1461L69.7861 169.148ZM71.4152 171.596C71.5592 171.824 71.7362 172.004 71.9462 172.136C72.1562 172.268 72.3962 172.334 72.6662 172.334C72.7682 172.334 72.8762 172.322 72.9902 172.298C73.1042 172.274 73.2272 172.235 73.3592 172.181C73.4972 172.121 73.6472 172.04 73.8092 171.938C73.9772 171.836 74.1602 171.704 74.3582 171.542L74.5292 172.451C74.2412 172.649 73.9562 172.814 73.6742 172.946C73.3982 173.078 73.0802 173.144 72.7202 173.144C72.3662 173.144 72.0392 173.081 71.7392 172.955C71.4452 172.829 71.1902 172.655 70.9742 172.433C70.7642 172.205 70.5992 171.935 70.4792 171.623C70.3592 171.311 70.2992 170.969 70.2992 170.597C70.2992 170.297 70.3592 170.009 70.4792 169.733C70.5992 169.457 70.7612 169.214 70.9652 169.004C71.1752 168.788 71.4182 168.617 71.6942 168.491C71.9702 168.365 72.2642 168.302 72.5762 168.302C73.0682 168.302 73.4702 168.41 73.7822 168.626C74.0942 168.842 74.3732 169.151 74.6192 169.553L71.4152 171.596ZM73.4312 169.409C73.3292 169.295 73.2092 169.217 73.0712 169.175C72.9392 169.133 72.7922 169.112 72.6302 169.112C72.4202 169.112 72.2252 169.151 72.0452 169.229C71.8652 169.301 71.7092 169.403 71.5772 169.535C71.4452 169.661 71.3402 169.817 71.2622 170.003C71.1902 170.183 71.1542 170.381 71.1542 170.597C71.1542 170.627 71.1542 170.666 71.1542 170.714C71.1542 170.762 71.1572 170.807 71.1632 170.849L73.4312 169.409ZM80.244 173.144C79.896 173.144 79.572 173.081 79.272 172.955C78.972 172.829 78.711 172.655 78.489 172.433C78.267 172.211 78.09 171.956 77.958 171.668C77.832 171.374 77.769 171.059 77.769 170.723C77.769 170.387 77.832 170.072 77.958 169.778C78.09 169.484 78.267 169.229 78.489 169.013C78.711 168.791 78.972 168.617 79.272 168.491C79.578 168.365 79.902 168.302 80.244 168.302C80.592 168.302 80.916 168.368 81.216 168.5C81.522 168.626 81.786 168.8 82.008 169.022C82.23 169.238 82.404 169.493 82.53 169.787C82.662 170.081 82.728 170.393 82.728 170.723C82.728 171.053 82.665 171.365 82.539 171.659C82.413 171.953 82.236 172.211 82.008 172.433C81.786 172.649 81.522 172.823 81.216 172.955C80.916 173.081 80.592 173.144 80.244 173.144ZM80.244 172.334C80.472 172.334 80.685 172.292 80.883 172.208C81.081 172.118 81.252 172.001 81.396 171.857C81.54 171.707 81.654 171.536 81.738 171.344C81.822 171.146 81.864 170.939 81.864 170.723C81.864 170.507 81.822 170.303 81.738 170.111C81.66 169.919 81.549 169.748 81.405 169.598C81.261 169.448 81.087 169.331 80.883 169.247C80.685 169.157 80.469 169.112 80.235 169.112C80.013 169.112 79.803 169.154 79.605 169.238C79.413 169.322 79.245 169.439 79.101 169.589C78.957 169.733 78.843 169.904 78.759 170.102C78.675 170.294 78.633 170.501 78.633 170.723C78.633 170.939 78.672 171.146 78.75 171.344C78.834 171.536 78.948 171.707 79.092 171.857C79.236 172.001 79.407 172.118 79.605 172.208C79.803 172.292 80.016 172.334 80.244 172.334ZM83.748 168.302L84.945 171.254L86.475 168.302H86.493L88.023 171.254L89.247 168.302L90.084 168.446L88.077 173.144H88.059L86.484 170.021L84.882 173.144H84.864L82.911 168.446L83.748 168.302ZM91.3559 168.977H91.3739C91.5059 168.743 91.6949 168.572 91.9409 168.464C92.1929 168.356 92.4539 168.302 92.7239 168.302C93.2699 168.302 93.7049 168.44 94.0289 168.716C94.3529 168.992 94.5149 169.373 94.5149 169.859V173L93.6509 173.144V169.931C93.6509 169.661 93.5639 169.451 93.3899 169.301C93.2159 169.145 92.9669 169.067 92.6429 169.067C92.2589 169.067 91.9469 169.187 91.7069 169.427C91.4729 169.667 91.3559 170 91.3559 170.426V173L90.4919 173.144V168.446L91.3559 168.302V168.977ZM96.4288 171.596C96.5728 171.824 96.7498 172.004 96.9598 172.136C97.1698 172.268 97.4098 172.334 97.6798 172.334C97.7818 172.334 97.8898 172.322 98.0038 172.298C98.1178 172.274 98.2408 172.235 98.3728 172.181C98.5108 172.121 98.6608 172.04 98.8228 171.938C98.9908 171.836 99.1738 171.704 99.3718 171.542L99.5428 172.451C99.2548 172.649 98.9698 172.814 98.6878 172.946C98.4118 173.078 98.0938 173.144 97.7338 173.144C97.3798 173.144 97.0528 173.081 96.7528 172.955C96.4588 172.829 96.2038 172.655 95.9878 172.433C95.7778 172.205 95.6128 171.935 95.4928 171.623C95.3728 171.311 95.3128 170.969 95.3128 170.597C95.3128 170.297 95.3728 170.009 95.4928 169.733C95.6128 169.457 95.7748 169.214 95.9788 169.004C96.1888 168.788 96.4318 168.617 96.7078 168.491C96.9838 168.365 97.2778 168.302 97.5898 168.302C98.0818 168.302 98.4838 168.41 98.7958 168.626C99.1078 168.842 99.3868 169.151 99.6328 169.553L96.4288 171.596ZM98.4448 169.409C98.3428 169.295 98.2228 169.217 98.0848 169.175C97.9528 169.133 97.8058 169.112 97.6438 169.112C97.4338 169.112 97.2388 169.151 97.0588 169.229C96.8788 169.301 96.7228 169.403 96.5908 169.535C96.4588 169.661 96.3538 169.817 96.2758 170.003C96.2038 170.183 96.1678 170.381 96.1678 170.597C96.1678 170.627 96.1678 170.666 96.1678 170.714C96.1678 170.762 96.1708 170.807 96.1768 170.849L98.4448 169.409ZM105.075 173L104.265 173.108V172.379C104.043 172.631 103.794 172.823 103.518 172.955C103.248 173.081 102.942 173.144 102.6 173.144C102.276 173.144 101.973 173.078 101.691 172.946C101.409 172.814 101.163 172.634 100.953 172.406C100.743 172.178 100.578 171.914 100.458 171.614C100.338 171.314 100.278 170.996 100.278 170.66C100.278 170.33 100.338 170.024 100.458 169.742C100.578 169.454 100.74 169.205 100.944 168.995C101.154 168.779 101.4 168.611 101.682 168.491C101.97 168.365 102.276 168.302 102.6 168.302C102.918 168.302 103.215 168.365 103.491 168.491C103.767 168.617 104.007 168.773 104.211 168.959V166.781L105.075 166.637V173ZM102.681 172.334C102.921 172.334 103.14 172.295 103.338 172.217C103.542 172.139 103.716 172.031 103.86 171.893C104.004 171.749 104.115 171.578 104.193 171.38C104.277 171.182 104.319 170.966 104.319 170.732C104.319 170.492 104.277 170.273 104.193 170.075C104.109 169.877 103.992 169.706 103.842 169.562C103.692 169.418 103.512 169.307 103.302 169.229C103.098 169.151 102.873 169.112 102.627 169.112C102.429 169.112 102.24 169.154 102.06 169.238C101.88 169.322 101.721 169.439 101.583 169.589C101.451 169.733 101.343 169.904 101.259 170.102C101.181 170.3 101.142 170.51 101.142 170.732C101.142 170.942 101.181 171.143 101.259 171.335C101.343 171.527 101.454 171.698 101.592 171.848C101.73 171.992 101.892 172.109 102.078 172.199C102.27 172.289 102.471 172.334 102.681 172.334Z" fill="black"/>
<path d="M125.902 166.682H125.92L128.017 171.713L130.096 166.682H130.114L131.356 173L130.798 173.072L129.916 168.5H129.898L128.026 173.144H128.008L126.064 168.5H126.046L125.2 173.072L124.642 173L125.902 166.682Z" fill="black"/>
<path fill-rule="evenodd" clip-rule="evenodd" d="M131.283 169.3H124.717L124.613 169.8H131.388L131.283 169.3ZM131.521 170.442H124.479L124.375 170.942H131.626L131.521 170.442Z" fill="black"/>
<path d="M136.648 166.826L136.432 167.636H134.272V168.905C134.47 168.845 134.671 168.815 134.875 168.815C135.163 168.815 135.436 168.875 135.694 168.995C135.952 169.109 136.18 169.265 136.378 169.463C136.576 169.661 136.732 169.892 136.846 170.156C136.96 170.414 137.017 170.687 137.017 170.975C137.017 171.293 136.954 171.584 136.828 171.848C136.708 172.112 136.54 172.34 136.324 172.532C136.108 172.724 135.856 172.874 135.568 172.982C135.28 173.09 134.971 173.144 134.641 173.144C134.227 173.144 133.87 173.063 133.57 172.901C133.27 172.739 132.991 172.502 132.733 172.19L133.453 171.704C133.597 171.878 133.768 172.028 133.966 172.154C134.164 172.274 134.377 172.334 134.605 172.334C134.809 172.334 135.001 172.304 135.181 172.244C135.367 172.184 135.529 172.097 135.667 171.983C135.811 171.869 135.925 171.728 136.009 171.56C136.093 171.386 136.135 171.191 136.135 170.975C136.135 170.777 136.096 170.597 136.018 170.435C135.94 170.267 135.832 170.123 135.694 170.003C135.562 169.883 135.403 169.79 135.217 169.724C135.037 169.658 134.845 169.625 134.641 169.625C134.401 169.625 134.176 169.673 133.966 169.769C133.756 169.859 133.564 169.982 133.39 170.138V166.826H136.648ZM140.002 173.144C139.588 173.144 139.237 173.048 138.949 172.856C138.661 172.658 138.43 172.406 138.256 172.1C138.082 171.788 137.956 171.44 137.878 171.056C137.8 170.666 137.761 170.282 137.761 169.904C137.761 169.676 137.776 169.439 137.806 169.193C137.836 168.947 137.884 168.704 137.95 168.464C138.022 168.224 138.115 167.996 138.229 167.78C138.343 167.564 138.481 167.375 138.643 167.213C138.811 167.051 139.006 166.922 139.228 166.826C139.45 166.73 139.708 166.682 140.002 166.682C140.422 166.682 140.773 166.781 141.055 166.979C141.343 167.177 141.574 167.432 141.748 167.744C141.928 168.056 142.054 168.404 142.126 168.788C142.204 169.172 142.243 169.553 142.243 169.931C142.243 170.273 142.207 170.633 142.135 171.011C142.063 171.383 141.94 171.728 141.766 172.046C141.598 172.364 141.37 172.628 141.082 172.838C140.794 173.042 140.434 173.144 140.002 173.144ZM140.002 172.334C140.452 172.334 140.791 172.127 141.019 171.713C141.247 171.293 141.361 170.693 141.361 169.913C141.361 169.145 141.247 168.551 141.019 168.131C140.797 167.705 140.455 167.492 139.993 167.492C139.573 167.492 139.243 167.693 139.003 168.095C138.763 168.491 138.643 169.097 138.643 169.913C138.643 170.693 138.757 171.293 138.985 171.713C139.213 172.127 139.552 172.334 140.002 172.334Z" fill="black"/>
<path d="M15.9302 194L15.0482 194.072V187.826L15.9302 187.682V194ZM19.2664 188.456C19.1104 188.42 18.9634 188.402 18.8254 188.402C18.5014 188.402 18.2644 188.483 18.1144 188.645C17.9644 188.801 17.8894 189.068 17.8894 189.446H19.0414V190.211H17.8894V194L17.0254 194.144V190.211H16.4314L16.6834 189.446H17.0254V189.365C17.0254 189.089 17.0614 188.846 17.1334 188.636C17.2054 188.42 17.3194 188.24 17.4754 188.096C17.6314 187.946 17.8354 187.832 18.0874 187.754C18.3394 187.676 18.6424 187.637 18.9964 187.637L19.2664 188.456ZM25.7521 189.365C25.7521 189.707 25.6741 189.983 25.5181 190.193C25.3681 190.397 25.1641 190.562 24.9061 190.688C25.2301 190.826 25.4821 191.036 25.6621 191.318C25.8481 191.594 25.9411 191.906 25.9411 192.254C25.9411 192.536 25.8871 192.794 25.7791 193.028C25.6771 193.256 25.5331 193.454 25.3471 193.622C25.1671 193.79 24.9511 193.919 24.6991 194.009C24.4531 194.099 24.1861 194.144 23.8981 194.144C23.4301 194.144 23.0251 194.06 22.6831 193.892C22.3411 193.724 22.0351 193.439 21.7651 193.037L22.4221 192.533C22.5961 192.785 22.7911 192.983 23.0071 193.127C23.2291 193.265 23.4931 193.334 23.7991 193.334C24.1771 193.334 24.4801 193.235 24.7081 193.037C24.9421 192.839 25.0591 192.563 25.0591 192.209C25.0591 192.047 25.0261 191.9 24.9601 191.768C24.9001 191.636 24.8101 191.522 24.6901 191.426C24.5761 191.33 24.4381 191.255 24.2761 191.201C24.1201 191.147 23.9491 191.12 23.7631 191.12H23.1151V190.355H23.4211C23.9371 190.355 24.3061 190.292 24.5281 190.166C24.7561 190.034 24.8701 189.791 24.8701 189.437C24.8701 189.131 24.7651 188.897 24.5551 188.735C24.3511 188.573 24.0871 188.492 23.7631 188.492C23.2471 188.492 22.8541 188.714 22.5841 189.158L21.9001 188.618C22.3861 187.994 23.0071 187.682 23.7631 187.682C24.0031 187.682 24.2431 187.721 24.4831 187.799C24.7231 187.871 24.9361 187.979 25.1221 188.123C25.3081 188.267 25.4581 188.444 25.5721 188.654C25.6921 188.864 25.7521 189.101 25.7521 189.365ZM32.484 189.176C32.244 188.912 32.031 188.732 31.845 188.636C31.659 188.54 31.476 188.492 31.296 188.492C31.008 188.492 30.774 188.576 30.594 188.744C30.414 188.912 30.324 189.143 30.324 189.437C30.324 189.575 30.354 189.695 30.414 189.797C30.48 189.893 30.567 189.98 30.675 190.058C30.789 190.136 30.924 190.208 31.08 190.274C31.236 190.334 31.407 190.4 31.593 190.472C31.815 190.556 32.019 190.646 32.205 190.742C32.397 190.838 32.562 190.955 32.7 191.093C32.838 191.231 32.946 191.396 33.024 191.588C33.108 191.774 33.15 191.999 33.15 192.263C33.15 192.545 33.099 192.8 32.997 193.028C32.895 193.256 32.757 193.454 32.583 193.622C32.409 193.79 32.205 193.919 31.971 194.009C31.743 194.099 31.497 194.144 31.233 194.144C31.059 194.144 30.894 194.126 30.738 194.09C30.582 194.06 30.426 194.006 30.27 193.928C30.12 193.85 29.964 193.748 29.802 193.622C29.646 193.49 29.484 193.331 29.316 193.145L29.964 192.605C30.09 192.803 30.255 192.974 30.459 193.118C30.663 193.262 30.891 193.334 31.143 193.334C31.299 193.334 31.443 193.316 31.575 193.28C31.713 193.238 31.833 193.175 31.935 193.091C32.037 193.007 32.118 192.896 32.178 192.758C32.238 192.62 32.268 192.452 32.268 192.254C32.268 192.14 32.226 192.035 32.142 191.939C32.058 191.837 31.953 191.747 31.827 191.669C31.707 191.591 31.581 191.522 31.449 191.462C31.317 191.396 31.203 191.339 31.107 191.291C30.909 191.195 30.711 191.093 30.513 190.985C30.315 190.871 30.135 190.742 29.973 190.598C29.817 190.454 29.688 190.289 29.586 190.103C29.49 189.911 29.442 189.683 29.442 189.419C29.442 189.161 29.487 188.927 29.577 188.717C29.667 188.501 29.793 188.318 29.955 188.168C30.123 188.012 30.324 187.892 30.558 187.808C30.792 187.724 31.053 187.682 31.341 187.682C31.647 187.682 31.956 187.757 32.268 187.907C32.58 188.057 32.85 188.282 33.078 188.582L32.484 189.176ZM35.13 189.446H36.345V190.211H35.13V192.659C35.13 192.785 35.142 192.893 35.166 192.983C35.19 193.073 35.232 193.148 35.292 193.208C35.352 193.268 35.433 193.313 35.535 193.343C35.643 193.367 35.778 193.379 35.94 193.379C36.042 193.379 36.138 193.373 36.228 193.361C36.318 193.349 36.414 193.337 36.516 193.325L36.363 194.108C36.333 194.108 36.264 194.114 36.156 194.126C36.054 194.138 35.901 194.144 35.697 194.144C35.463 194.144 35.256 194.105 35.076 194.027C34.902 193.949 34.755 193.847 34.635 193.721C34.515 193.595 34.422 193.451 34.356 193.289C34.296 193.121 34.266 192.95 34.266 192.776V190.211H33.555L33.861 189.446H34.266V188.33L35.13 188.123V189.446ZM40.539 194L39.765 194.144V193.514H39.747C39.681 193.64 39.597 193.745 39.495 193.829C39.399 193.913 39.291 193.976 39.171 194.018C39.057 194.066 38.931 194.099 38.793 194.117C38.661 194.135 38.529 194.144 38.397 194.144C38.145 194.144 37.914 194.099 37.704 194.009C37.5 193.925 37.323 193.805 37.173 193.649C37.023 193.487 36.906 193.298 36.822 193.082C36.744 192.866 36.705 192.629 36.705 192.371C36.705 192.137 36.753 191.921 36.849 191.723C36.945 191.525 37.074 191.354 37.236 191.21C37.404 191.066 37.596 190.955 37.812 190.877C38.034 190.799 38.271 190.76 38.523 190.76C38.733 190.76 38.937 190.793 39.135 190.859C39.339 190.925 39.519 191.039 39.675 191.201V190.886C39.675 190.718 39.654 190.583 39.612 190.481C39.57 190.379 39.504 190.301 39.414 190.247C39.33 190.193 39.219 190.157 39.081 190.139C38.943 190.121 38.778 190.112 38.586 190.112C38.4 190.112 38.193 190.127 37.965 190.157C37.737 190.181 37.503 190.253 37.263 190.373L37.497 189.482C37.713 189.434 37.929 189.392 38.145 189.356C38.361 189.32 38.562 189.302 38.748 189.302C39.39 189.302 39.849 189.443 40.125 189.725C40.401 190.007 40.539 190.427 40.539 190.985V194ZM38.559 193.334C38.937 193.334 39.216 193.25 39.396 193.082C39.582 192.914 39.675 192.677 39.675 192.371C39.675 192.119 39.579 191.915 39.387 191.759C39.195 191.603 38.937 191.525 38.613 191.525C38.307 191.525 38.055 191.603 37.857 191.759C37.665 191.909 37.569 192.113 37.569 192.371C37.569 192.695 37.656 192.938 37.83 193.1C38.01 193.256 38.253 193.334 38.559 193.334ZM42.627 189.446H43.842V190.211H42.627V192.659C42.627 192.785 42.639 192.893 42.663 192.983C42.687 193.073 42.729 193.148 42.789 193.208C42.849 193.268 42.93 193.313 43.032 193.343C43.14 193.367 43.275 193.379 43.437 193.379C43.539 193.379 43.635 193.373 43.725 193.361C43.815 193.349 43.911 193.337 44.013 193.325L43.86 194.108C43.83 194.108 43.761 194.114 43.653 194.126C43.551 194.138 43.398 194.144 43.194 194.144C42.96 194.144 42.753 194.105 42.573 194.027C42.399 193.949 42.252 193.847 42.132 193.721C42.012 193.595 41.919 193.451 41.853 193.289C41.793 193.121 41.763 192.95 41.763 192.776V190.211H41.052L41.358 189.446H41.763V188.33L42.627 188.123V189.446ZM44.9851 187.565L45.5611 188.249L45.0031 188.924L44.4271 188.249L44.9851 187.565ZM45.4261 194L44.5621 194.144V189.446L45.4261 189.302V194ZM48.7352 194.144C48.3872 194.144 48.0632 194.081 47.7632 193.955C47.4632 193.829 47.2022 193.655 46.9802 193.433C46.7582 193.211 46.5812 192.956 46.4492 192.668C46.3232 192.374 46.2602 192.059 46.2602 191.723C46.2602 191.387 46.3232 191.072 46.4492 190.778C46.5812 190.484 46.7582 190.229 46.9802 190.013C47.2022 189.791 47.4632 189.617 47.7632 189.491C48.0692 189.365 48.3932 189.302 48.7352 189.302C49.0832 189.302 49.4072 189.368 49.7072 189.5C50.0132 189.626 50.2772 189.8 50.4992 190.022C50.7212 190.238 50.8952 190.493 51.0212 190.787C51.1532 191.081 51.2192 191.393 51.2192 191.723C51.2192 192.053 51.1562 192.365 51.0302 192.659C50.9042 192.953 50.7272 193.211 50.4992 193.433C50.2772 193.649 50.0132 193.823 49.7072 193.955C49.4072 194.081 49.0832 194.144 48.7352 194.144ZM48.7352 193.334C48.9632 193.334 49.1762 193.292 49.3742 193.208C49.5722 193.118 49.7432 193.001 49.8872 192.857C50.0312 192.707 50.1452 192.536 50.2292 192.344C50.3132 192.146 50.3552 191.939 50.3552 191.723C50.3552 191.507 50.3132 191.303 50.2292 191.111C50.1512 190.919 50.0402 190.748 49.8962 190.598C49.7522 190.448 49.5782 190.331 49.3742 190.247C49.1762 190.157 48.9602 190.112 48.7262 190.112C48.5042 190.112 48.2942 190.154 48.0962 190.238C47.9042 190.322 47.7362 190.439 47.5922 190.589C47.4482 190.733 47.3342 190.904 47.2502 191.102C47.1662 191.294 47.1242 191.501 47.1242 191.723C47.1242 191.939 47.1632 192.146 47.2412 192.344C47.3252 192.536 47.4392 192.707 47.5832 192.857C47.7272 193.001 47.8982 193.118 48.0962 193.208C48.2942 193.292 48.5072 193.334 48.7352 193.334ZM52.8422 189.977H52.8602C52.9922 189.743 53.1812 189.572 53.4272 189.464C53.6792 189.356 53.9402 189.302 54.2102 189.302C54.7562 189.302 55.1912 189.44 55.5152 189.716C55.8392 189.992 56.0012 190.373 56.0012 190.859V194L55.1372 194.144V190.931C55.1372 190.661 55.0502 190.451 54.8762 190.301C54.7022 190.145 54.4532 190.067 54.1292 190.067C53.7452 190.067 53.4332 190.187 53.1932 190.427C52.9592 190.667 52.8422 191 52.8422 191.426V194L51.9782 194.144V189.446L52.8422 189.302V189.977ZM59.1482 190.508C59.1122 190.466 59.0672 190.421 59.0132 190.373C58.9592 190.319 58.8962 190.271 58.8242 190.229C58.7522 190.181 58.6742 190.142 58.5902 190.112C58.5062 190.082 58.4132 190.067 58.3112 190.067C58.1432 190.067 58.0112 190.088 57.9152 190.13C57.8192 190.166 57.7442 190.211 57.6902 190.265C57.6422 190.319 57.6092 190.379 57.5912 190.445C57.5792 190.505 57.5732 190.562 57.5732 190.616C57.5732 190.808 57.6422 190.952 57.7802 191.048C57.9182 191.138 58.1072 191.213 58.3472 191.273C58.5272 191.321 58.7042 191.372 58.8782 191.426C59.0522 191.48 59.2082 191.558 59.3462 191.66C59.4842 191.756 59.5952 191.888 59.6792 192.056C59.7692 192.224 59.8142 192.443 59.8142 192.713C59.8142 192.899 59.7782 193.079 59.7062 193.253C59.6342 193.427 59.5262 193.58 59.3822 193.712C59.2442 193.844 59.0762 193.949 58.8782 194.027C58.6802 194.105 58.4552 194.144 58.2032 194.144C57.8912 194.144 57.6032 194.084 57.3392 193.964C57.0812 193.844 56.8472 193.649 56.6372 193.379L57.2312 192.875C57.3632 193.031 57.5012 193.154 57.6452 193.244C57.7892 193.334 57.9692 193.379 58.1852 193.379C58.3952 193.379 58.5752 193.328 58.7252 193.226C58.8752 193.124 58.9502 192.98 58.9502 192.794C58.9502 192.566 58.8662 192.398 58.6982 192.29C58.5302 192.176 58.2632 192.074 57.8972 191.984C57.7292 191.942 57.5732 191.894 57.4292 191.84C57.2852 191.78 57.1592 191.705 57.0512 191.615C56.9432 191.519 56.8592 191.402 56.7992 191.264C56.7392 191.12 56.7092 190.946 56.7092 190.742C56.7092 190.532 56.7452 190.34 56.8172 190.166C56.8952 189.986 57.0002 189.833 57.1322 189.707C57.2642 189.581 57.4202 189.482 57.6002 189.41C57.7802 189.338 57.9752 189.302 58.1852 189.302C58.4972 189.302 58.7612 189.353 58.9772 189.455C59.1992 189.551 59.4272 189.713 59.6612 189.941L59.1482 190.508ZM66.5371 194L65.7631 194.144V193.514H65.7451C65.6791 193.64 65.5951 193.745 65.4931 193.829C65.3971 193.913 65.2891 193.976 65.1691 194.018C65.0551 194.066 64.9291 194.099 64.7911 194.117C64.6591 194.135 64.5271 194.144 64.3951 194.144C64.1431 194.144 63.9121 194.099 63.7021 194.009C63.4981 193.925 63.3211 193.805 63.1711 193.649C63.0211 193.487 62.9041 193.298 62.8201 193.082C62.7421 192.866 62.7031 192.629 62.7031 192.371C62.7031 192.137 62.7511 191.921 62.8471 191.723C62.9431 191.525 63.0721 191.354 63.2341 191.21C63.4021 191.066 63.5941 190.955 63.8101 190.877C64.0321 190.799 64.2691 190.76 64.5211 190.76C64.7311 190.76 64.9351 190.793 65.1331 190.859C65.3371 190.925 65.5171 191.039 65.6731 191.201V190.886C65.6731 190.718 65.6521 190.583 65.6101 190.481C65.5681 190.379 65.5021 190.301 65.4121 190.247C65.3281 190.193 65.2171 190.157 65.0791 190.139C64.9411 190.121 64.7761 190.112 64.5841 190.112C64.3981 190.112 64.1911 190.127 63.9631 190.157C63.7351 190.181 63.5011 190.253 63.2611 190.373L63.4951 189.482C63.7111 189.434 63.9271 189.392 64.1431 189.356C64.3591 189.32 64.5601 189.302 64.7461 189.302C65.3881 189.302 65.8471 189.443 66.1231 189.725C66.3991 190.007 66.5371 190.427 66.5371 190.985V194ZM64.5571 193.334C64.9351 193.334 65.2141 193.25 65.3941 193.082C65.5801 192.914 65.6731 192.677 65.6731 192.371C65.6731 192.119 65.5771 191.915 65.3851 191.759C65.1931 191.603 64.9351 191.525 64.6111 191.525C64.3051 191.525 64.0531 191.603 63.8551 191.759C63.6631 191.909 63.5671 192.113 63.5671 192.371C63.5671 192.695 63.6541 192.938 63.8281 193.1C64.0081 193.256 64.2511 193.334 64.5571 193.334ZM69.7861 190.148H69.6961C69.4921 190.148 69.3061 190.19 69.1381 190.274C68.9701 190.352 68.8261 190.466 68.7061 190.616C68.5921 190.76 68.5021 190.934 68.4361 191.138C68.3761 191.342 68.3461 191.567 68.3461 191.813V194L67.4821 194.144V189.446L68.2921 189.302V190.283H68.3101C68.4661 189.959 68.6551 189.713 68.8771 189.545C69.0991 189.371 69.3901 189.284 69.7501 189.284H70.1461L69.7861 190.148ZM71.4152 192.596C71.5592 192.824 71.7362 193.004 71.9462 193.136C72.1562 193.268 72.3962 193.334 72.6662 193.334C72.7682 193.334 72.8762 193.322 72.9902 193.298C73.1042 193.274 73.2272 193.235 73.3592 193.181C73.4972 193.121 73.6472 193.04 73.8092 192.938C73.9772 192.836 74.1602 192.704 74.3582 192.542L74.5292 193.451C74.2412 193.649 73.9562 193.814 73.6742 193.946C73.3982 194.078 73.0802 194.144 72.7202 194.144C72.3662 194.144 72.0392 194.081 71.7392 193.955C71.4452 193.829 71.1902 193.655 70.9742 193.433C70.7642 193.205 70.5992 192.935 70.4792 192.623C70.3592 192.311 70.2992 191.969 70.2992 191.597C70.2992 191.297 70.3592 191.009 70.4792 190.733C70.5992 190.457 70.7612 190.214 70.9652 190.004C71.1752 189.788 71.4182 189.617 71.6942 189.491C71.9702 189.365 72.2642 189.302 72.5762 189.302C73.0682 189.302 73.4702 189.41 73.7822 189.626C74.0942 189.842 74.3732 190.151 74.6192 190.553L71.4152 192.596ZM73.4312 190.409C73.3292 190.295 73.2092 190.217 73.0712 190.175C72.9392 190.133 72.7922 190.112 72.6302 190.112C72.4202 190.112 72.2252 190.151 72.0452 190.229C71.8652 190.301 71.7092 190.403 71.5772 190.535C71.4452 190.661 71.3402 190.817 71.2622 191.003C71.1902 191.183 71.1542 191.381 71.1542 191.597C71.1542 191.627 71.1542 191.666 71.1542 191.714C71.1542 191.762 71.1572 191.807 71.1632 191.849L73.4312 190.409ZM80.244 194.144C79.896 194.144 79.572 194.081 79.272 193.955C78.972 193.829 78.711 193.655 78.489 193.433C78.267 193.211 78.09 192.956 77.958 192.668C77.832 192.374 77.769 192.059 77.769 191.723C77.769 191.387 77.832 191.072 77.958 190.778C78.09 190.484 78.267 190.229 78.489 190.013C78.711 189.791 78.972 189.617 79.272 189.491C79.578 189.365 79.902 189.302 80.244 189.302C80.592 189.302 80.916 189.368 81.216 189.5C81.522 189.626 81.786 189.8 82.008 190.022C82.23 190.238 82.404 190.493 82.53 190.787C82.662 191.081 82.728 191.393 82.728 191.723C82.728 192.053 82.665 192.365 82.539 192.659C82.413 192.953 82.236 193.211 82.008 193.433C81.786 193.649 81.522 193.823 81.216 193.955C80.916 194.081 80.592 194.144 80.244 194.144ZM80.244 193.334C80.472 193.334 80.685 193.292 80.883 193.208C81.081 193.118 81.252 193.001 81.396 192.857C81.54 192.707 81.654 192.536 81.738 192.344C81.822 192.146 81.864 191.939 81.864 191.723C81.864 191.507 81.822 191.303 81.738 191.111C81.66 190.919 81.549 190.748 81.405 190.598C81.261 190.448 81.087 190.331 80.883 190.247C80.685 190.157 80.469 190.112 80.235 190.112C80.013 190.112 79.803 190.154 79.605 190.238C79.413 190.322 79.245 190.439 79.101 190.589C78.957 190.733 78.843 190.904 78.759 191.102C78.675 191.294 78.633 191.501 78.633 191.723C78.633 191.939 78.672 192.146 78.75 192.344C78.834 192.536 78.948 192.707 79.092 192.857C79.236 193.001 79.407 193.118 79.605 193.208C79.803 193.292 80.016 193.334 80.244 193.334ZM83.748 189.302L84.945 192.254L86.475 189.302H86.493L88.023 192.254L89.247 189.302L90.084 189.446L88.077 194.144H88.059L86.484 191.021L84.882 194.144H84.864L82.911 189.446L83.748 189.302ZM91.3559 189.977H91.3739C91.5059 189.743 91.6949 189.572 91.9409 189.464C92.1929 189.356 92.4539 189.302 92.7239 189.302C93.2699 189.302 93.7049 189.44 94.0289 189.716C94.3529 189.992 94.5149 190.373 94.5149 190.859V194L93.6509 194.144V190.931C93.6509 190.661 93.5639 190.451 93.3899 190.301C93.2159 190.145 92.9669 190.067 92.6429 190.067C92.2589 190.067 91.9469 190.187 91.7069 190.427C91.4729 190.667 91.3559 191 91.3559 191.426V194L90.4919 194.144V189.446L91.3559 189.302V189.977ZM96.4288 192.596C96.5728 192.824 96.7498 193.004 96.9598 193.136C97.1698 193.268 97.4098 193.334 97.6798 193.334C97.7818 193.334 97.8898 193.322 98.0038 193.298C98.1178 193.274 98.2408 193.235 98.3728 193.181C98.5108 193.121 98.6608 193.04 98.8228 192.938C98.9908 192.836 99.1738 192.704 99.3718 192.542L99.5428 193.451C99.2548 193.649 98.9698 193.814 98.6878 193.946C98.4118 194.078 98.0938 194.144 97.7338 194.144C97.3798 194.144 97.0528 194.081 96.7528 193.955C96.4588 193.829 96.2038 193.655 95.9878 193.433C95.7778 193.205 95.6128 192.935 95.4928 192.623C95.3728 192.311 95.3128 191.969 95.3128 191.597C95.3128 191.297 95.3728 191.009 95.4928 190.733C95.6128 190.457 95.7748 190.214 95.9788 190.004C96.1888 189.788 96.4318 189.617 96.7078 189.491C96.9838 189.365 97.2778 189.302 97.5898 189.302C98.0818 189.302 98.4838 189.41 98.7958 189.626C99.1078 189.842 99.3868 190.151 99.6328 190.553L96.4288 192.596ZM98.4448 190.409C98.3428 190.295 98.2228 190.217 98.0848 190.175C97.9528 190.133 97.8058 190.112 97.6438 190.112C97.4338 190.112 97.2388 190.151 97.0588 190.229C96.8788 190.301 96.7228 190.403 96.5908 190.535C96.4588 190.661 96.3538 190.817 96.2758 191.003C96.2038 191.183 96.1678 191.381 96.1678 191.597C96.1678 191.627 96.1678 191.666 96.1678 191.714C96.1678 191.762 96.1708 191.807 96.1768 191.849L98.4448 190.409ZM105.075 194L104.265 194.108V193.379C104.043 193.631 103.794 193.823 103.518 193.955C103.248 194.081 102.942 194.144 102.6 194.144C102.276 194.144 101.973 194.078 101.691 193.946C101.409 193.814 101.163 193.634 100.953 193.406C100.743 193.178 100.578 192.914 100.458 192.614C100.338 192.314 100.278 191.996 100.278 191.66C100.278 191.33 100.338 191.024 100.458 190.742C100.578 190.454 100.74 190.205 100.944 189.995C101.154 189.779 101.4 189.611 101.682 189.491C101.97 189.365 102.276 189.302 102.6 189.302C102.918 189.302 103.215 189.365 103.491 189.491C103.767 189.617 104.007 189.773 104.211 189.959V187.781L105.075 187.637V194ZM102.681 193.334C102.921 193.334 103.14 193.295 103.338 193.217C103.542 193.139 103.716 193.031 103.86 192.893C104.004 192.749 104.115 192.578 104.193 192.38C104.277 192.182 104.319 191.966 104.319 191.732C104.319 191.492 104.277 191.273 104.193 191.075C104.109 190.877 103.992 190.706 103.842 190.562C103.692 190.418 103.512 190.307 103.302 190.229C103.098 190.151 102.873 190.112 102.627 190.112C102.429 190.112 102.24 190.154 102.06 190.238C101.88 190.322 101.721 190.439 101.583 190.589C101.451 190.733 101.343 190.904 101.259 191.102C101.181 191.3 101.142 191.51 101.142 191.732C101.142 191.942 101.181 192.143 101.259 192.335C101.343 192.527 101.454 192.698 101.592 192.848C101.73 192.992 101.892 193.109 102.078 193.199C102.27 193.289 102.471 193.334 102.681 193.334Z" fill="black"/>
<path d="M120.902 187.682H120.92L123.017 192.713L125.096 187.682H125.114L126.356 194L125.798 194.072L124.916 189.5H124.898L123.026 194.144H123.008L121.064 189.5H121.046L120.2 194.072L119.642 194L120.902 187.682Z" fill="black"/>
<path fill-rule="evenodd" clip-rule="evenodd" d="M126.283 190.3H119.717L119.613 190.8H126.388L126.283 190.3ZM126.521 191.442H119.479L119.375 191.942H126.626L126.521 191.442Z" fill="black"/>
<path d="M130.703 187.682H130.721V194L129.839 194.072V189.221L128.579 190.004L128.264 189.446L130.703 187.682ZM135.002 194.144C134.588 194.144 134.237 194.048 133.949 193.856C133.661 193.658 133.43 193.406 133.256 193.1C133.082 192.788 132.956 192.44 132.878 192.056C132.8 191.666 132.761 191.282 132.761 190.904C132.761 190.676 132.776 190.439 132.806 190.193C132.836 189.947 132.884 189.704 132.95 189.464C133.022 189.224 133.115 188.996 133.229 188.78C133.343 188.564 133.481 188.375 133.643 188.213C133.811 188.051 134.006 187.922 134.228 187.826C134.45 187.73 134.708 187.682 135.002 187.682C135.422 187.682 135.773 187.781 136.055 187.979C136.343 188.177 136.574 188.432 136.748 188.744C136.928 189.056 137.054 189.404 137.126 189.788C137.204 190.172 137.243 190.553 137.243 190.931C137.243 191.273 137.207 191.633 137.135 192.011C137.063 192.383 136.94 192.728 136.766 193.046C136.598 193.364 136.37 193.628 136.082 193.838C135.794 194.042 135.434 194.144 135.002 194.144ZM135.002 193.334C135.452 193.334 135.791 193.127 136.019 192.713C136.247 192.293 136.361 191.693 136.361 190.913C136.361 190.145 136.247 189.551 136.019 189.131C135.797 188.705 135.455 188.492 134.993 188.492C134.573 188.492 134.243 188.693 134.003 189.095C133.763 189.491 133.643 190.097 133.643 190.913C133.643 191.693 133.757 192.293 133.985 192.713C134.213 193.127 134.552 193.334 135.002 193.334ZM140.002 194.144C139.588 194.144 139.237 194.048 138.949 193.856C138.661 193.658 138.43 193.406 138.256 193.1C138.082 192.788 137.956 192.44 137.878 192.056C137.8 191.666 137.761 191.282 137.761 190.904C137.761 190.676 137.776 190.439 137.806 190.193C137.836 189.947 137.884 189.704 137.95 189.464C138.022 189.224 138.115 188.996 138.229 188.78C138.343 188.564 138.481 188.375 138.643 188.213C138.811 188.051 139.006 187.922 139.228 187.826C139.45 187.73 139.708 187.682 140.002 187.682C140.422 187.682 140.773 187.781 141.055 187.979C141.343 188.177 141.574 188.432 141.748 188.744C141.928 189.056 142.054 189.404 142.126 189.788C142.204 190.172 142.243 190.553 142.243 190.931C142.243 191.273 142.207 191.633 142.135 192.011C142.063 192.383 141.94 192.728 141.766 193.046C141.598 193.364 141.37 193.628 141.082 193.838C140.794 194.042 140.434 194.144 140.002 194.144ZM140.002 193.334C140.452 193.334 140.791 193.127 141.019 192.713C141.247 192.293 141.361 191.693 141.361 190.913C141.361 190.145 141.247 189.551 141.019 189.131C140.797 188.705 140.455 188.492 139.993 188.492C139.573 188.492 139.243 188.693 139.003 189.095C138.763 189.491 138.643 190.097 138.643 190.913C138.643 191.693 138.757 192.293 138.985 192.713C139.213 193.127 139.552 193.334 140.002 193.334Z" fill="black"/>
<path d="M15.9302 215L15.0482 215.072V208.826L15.9302 208.682V215ZM19.2664 209.456C19.1104 209.42 18.9634 209.402 18.8254 209.402C18.5014 209.402 18.2644 209.483 18.1144 209.645C17.9644 209.801 17.8894 210.068 17.8894 210.446H19.0414V211.211H17.8894V215L17.0254 215.144V211.211H16.4314L16.6834 210.446H17.0254V210.365C17.0254 210.089 17.0614 209.846 17.1334 209.636C17.2054 209.42 17.3194 209.24 17.4754 209.096C17.6314 208.946 17.8354 208.832 18.0874 208.754C18.3394 208.676 18.6424 208.637 18.9964 208.637L19.2664 209.456ZM25.1401 208.682V212.813H26.1661L26.0221 213.497H25.1401V215L24.3121 215.072V213.497H21.6031L25.1221 208.682H25.1401ZM22.9351 212.813H24.3121V210.824H24.2851L22.9351 212.813ZM32.484 210.176C32.244 209.912 32.031 209.732 31.845 209.636C31.659 209.54 31.476 209.492 31.296 209.492C31.008 209.492 30.774 209.576 30.594 209.744C30.414 209.912 30.324 210.143 30.324 210.437C30.324 210.575 30.354 210.695 30.414 210.797C30.48 210.893 30.567 210.98 30.675 211.058C30.789 211.136 30.924 211.208 31.08 211.274C31.236 211.334 31.407 211.4 31.593 211.472C31.815 211.556 32.019 211.646 32.205 211.742C32.397 211.838 32.562 211.955 32.7 212.093C32.838 212.231 32.946 212.396 33.024 212.588C33.108 212.774 33.15 212.999 33.15 213.263C33.15 213.545 33.099 213.8 32.997 214.028C32.895 214.256 32.757 214.454 32.583 214.622C32.409 214.79 32.205 214.919 31.971 215.009C31.743 215.099 31.497 215.144 31.233 215.144C31.059 215.144 30.894 215.126 30.738 215.09C30.582 215.06 30.426 215.006 30.27 214.928C30.12 214.85 29.964 214.748 29.802 214.622C29.646 214.49 29.484 214.331 29.316 214.145L29.964 213.605C30.09 213.803 30.255 213.974 30.459 214.118C30.663 214.262 30.891 214.334 31.143 214.334C31.299 214.334 31.443 214.316 31.575 214.28C31.713 214.238 31.833 214.175 31.935 214.091C32.037 214.007 32.118 213.896 32.178 213.758C32.238 213.62 32.268 213.452 32.268 213.254C32.268 213.14 32.226 213.035 32.142 212.939C32.058 212.837 31.953 212.747 31.827 212.669C31.707 212.591 31.581 212.522 31.449 212.462C31.317 212.396 31.203 212.339 31.107 212.291C30.909 212.195 30.711 212.093 30.513 211.985C30.315 211.871 30.135 211.742 29.973 211.598C29.817 211.454 29.688 211.289 29.586 211.103C29.49 210.911 29.442 210.683 29.442 210.419C29.442 210.161 29.487 209.927 29.577 209.717C29.667 209.501 29.793 209.318 29.955 209.168C30.123 209.012 30.324 208.892 30.558 208.808C30.792 208.724 31.053 208.682 31.341 208.682C31.647 208.682 31.956 208.757 32.268 208.907C32.58 209.057 32.85 209.282 33.078 209.582L32.484 210.176ZM35.13 210.446H36.345V211.211H35.13V213.659C35.13 213.785 35.142 213.893 35.166 213.983C35.19 214.073 35.232 214.148 35.292 214.208C35.352 214.268 35.433 214.313 35.535 214.343C35.643 214.367 35.778 214.379 35.94 214.379C36.042 214.379 36.138 214.373 36.228 214.361C36.318 214.349 36.414 214.337 36.516 214.325L36.363 215.108C36.333 215.108 36.264 215.114 36.156 215.126C36.054 215.138 35.901 215.144 35.697 215.144C35.463 215.144 35.256 215.105 35.076 215.027C34.902 214.949 34.755 214.847 34.635 214.721C34.515 214.595 34.422 214.451 34.356 214.289C34.296 214.121 34.266 213.95 34.266 213.776V211.211H33.555L33.861 210.446H34.266V209.33L35.13 209.123V210.446ZM40.539 215L39.765 215.144V214.514H39.747C39.681 214.64 39.597 214.745 39.495 214.829C39.399 214.913 39.291 214.976 39.171 215.018C39.057 215.066 38.931 215.099 38.793 215.117C38.661 215.135 38.529 215.144 38.397 215.144C38.145 215.144 37.914 215.099 37.704 215.009C37.5 214.925 37.323 214.805 37.173 214.649C37.023 214.487 36.906 214.298 36.822 214.082C36.744 213.866 36.705 213.629 36.705 213.371C36.705 213.137 36.753 212.921 36.849 212.723C36.945 212.525 37.074 212.354 37.236 212.21C37.404 212.066 37.596 211.955 37.812 211.877C38.034 211.799 38.271 211.76 38.523 211.76C38.733 211.76 38.937 211.793 39.135 211.859C39.339 211.925 39.519 212.039 39.675 212.201V211.886C39.675 211.718 39.654 211.583 39.612 211.481C39.57 211.379 39.504 211.301 39.414 211.247C39.33 211.193 39.219 211.157 39.081 211.139C38.943 211.121 38.778 211.112 38.586 211.112C38.4 211.112 38.193 211.127 37.965 211.157C37.737 211.181 37.503 211.253 37.263 211.373L37.497 210.482C37.713 210.434 37.929 210.392 38.145 210.356C38.361 210.32 38.562 210.302 38.748 210.302C39.39 210.302 39.849 210.443 40.125 210.725C40.401 211.007 40.539 211.427 40.539 211.985V215ZM38.559 214.334C38.937 214.334 39.216 214.25 39.396 214.082C39.582 213.914 39.675 213.677 39.675 213.371C39.675 213.119 39.579 212.915 39.387 212.759C39.195 212.603 38.937 212.525 38.613 212.525C38.307 212.525 38.055 212.603 37.857 212.759C37.665 212.909 37.569 213.113 37.569 213.371C37.569 213.695 37.656 213.938 37.83 214.1C38.01 214.256 38.253 214.334 38.559 214.334ZM42.627 210.446H43.842V211.211H42.627V213.659C42.627 213.785 42.639 213.893 42.663 213.983C42.687 214.073 42.729 214.148 42.789 214.208C42.849 214.268 42.93 214.313 43.032 214.343C43.14 214.367 43.275 214.379 43.437 214.379C43.539 214.379 43.635 214.373 43.725 214.361C43.815 214.349 43.911 214.337 44.013 214.325L43.86 215.108C43.83 215.108 43.761 215.114 43.653 215.126C43.551 215.138 43.398 215.144 43.194 215.144C42.96 215.144 42.753 215.105 42.573 215.027C42.399 214.949 42.252 214.847 42.132 214.721C42.012 214.595 41.919 214.451 41.853 214.289C41.793 214.121 41.763 213.95 41.763 213.776V211.211H41.052L41.358 210.446H41.763V209.33L42.627 209.123V210.446ZM44.9851 208.565L45.5611 209.249L45.0031 209.924L44.4271 209.249L44.9851 208.565ZM45.4261 215L44.5621 215.144V210.446L45.4261 210.302V215ZM48.7352 215.144C48.3872 215.144 48.0632 215.081 47.7632 214.955C47.4632 214.829 47.2022 214.655 46.9802 214.433C46.7582 214.211 46.5812 213.956 46.4492 213.668C46.3232 213.374 46.2602 213.059 46.2602 212.723C46.2602 212.387 46.3232 212.072 46.4492 211.778C46.5812 211.484 46.7582 211.229 46.9802 211.013C47.2022 210.791 47.4632 210.617 47.7632 210.491C48.0692 210.365 48.3932 210.302 48.7352 210.302C49.0832 210.302 49.4072 210.368 49.7072 210.5C50.0132 210.626 50.2772 210.8 50.4992 211.022C50.7212 211.238 50.8952 211.493 51.0212 211.787C51.1532 212.081 51.2192 212.393 51.2192 212.723C51.2192 213.053 51.1562 213.365 51.0302 213.659C50.9042 213.953 50.7272 214.211 50.4992 214.433C50.2772 214.649 50.0132 214.823 49.7072 214.955C49.4072 215.081 49.0832 215.144 48.7352 215.144ZM48.7352 214.334C48.9632 214.334 49.1762 214.292 49.3742 214.208C49.5722 214.118 49.7432 214.001 49.8872 213.857C50.0312 213.707 50.1452 213.536 50.2292 213.344C50.3132 213.146 50.3552 212.939 50.3552 212.723C50.3552 212.507 50.3132 212.303 50.2292 212.111C50.1512 211.919 50.0402 211.748 49.8962 211.598C49.7522 211.448 49.5782 211.331 49.3742 211.247C49.1762 211.157 48.9602 211.112 48.7262 211.112C48.5042 211.112 48.2942 211.154 48.0962 211.238C47.9042 211.322 47.7362 211.439 47.5922 211.589C47.4482 211.733 47.3342 211.904 47.2502 212.102C47.1662 212.294 47.1242 212.501 47.1242 212.723C47.1242 212.939 47.1632 213.146 47.2412 213.344C47.3252 213.536 47.4392 213.707 47.5832 213.857C47.7272 214.001 47.8982 214.118 48.0962 214.208C48.2942 214.292 48.5072 214.334 48.7352 214.334ZM52.8422 210.977H52.8602C52.9922 210.743 53.1812 210.572 53.4272 210.464C53.6792 210.356 53.9402 210.302 54.2102 210.302C54.7562 210.302 55.1912 210.44 55.5152 210.716C55.8392 210.992 56.0012 211.373 56.0012 211.859V215L55.1372 215.144V211.931C55.1372 211.661 55.0502 211.451 54.8762 211.301C54.7022 211.145 54.4532 211.067 54.1292 211.067C53.7452 211.067 53.4332 211.187 53.1932 211.427C52.9592 211.667 52.8422 212 52.8422 212.426V215L51.9782 215.144V210.446L52.8422 210.302V210.977ZM59.1482 211.508C59.1122 211.466 59.0672 211.421 59.0132 211.373C58.9592 211.319 58.8962 211.271 58.8242 211.229C58.7522 211.181 58.6742 211.142 58.5902 211.112C58.5062 211.082 58.4132 211.067 58.3112 211.067C58.1432 211.067 58.0112 211.088 57.9152 211.13C57.8192 211.166 57.7442 211.211 57.6902 211.265C57.6422 211.319 57.6092 211.379 57.5912 211.445C57.5792 211.505 57.5732 211.562 57.5732 211.616C57.5732 211.808 57.6422 211.952 57.7802 212.048C57.9182 212.138 58.1072 212.213 58.3472 212.273C58.5272 212.321 58.7042 212.372 58.8782 212.426C59.0522 212.48 59.2082 212.558 59.3462 212.66C59.4842 212.756 59.5952 212.888 59.6792 213.056C59.7692 213.224 59.8142 213.443 59.8142 213.713C59.8142 213.899 59.7782 214.079 59.7062 214.253C59.6342 214.427 59.5262 214.58 59.3822 214.712C59.2442 214.844 59.0762 214.949 58.8782 215.027C58.6802 215.105 58.4552 215.144 58.2032 215.144C57.8912 215.144 57.6032 215.084 57.3392 214.964C57.0812 214.844 56.8472 214.649 56.6372 214.379L57.2312 213.875C57.3632 214.031 57.5012 214.154 57.6452 214.244C57.7892 214.334 57.9692 214.379 58.1852 214.379C58.3952 214.379 58.5752 214.328 58.7252 214.226C58.8752 214.124 58.9502 213.98 58.9502 213.794C58.9502 213.566 58.8662 213.398 58.6982 213.29C58.5302 213.176 58.2632 213.074 57.8972 212.984C57.7292 212.942 57.5732 212.894 57.4292 212.84C57.2852 212.78 57.1592 212.705 57.0512 212.615C56.9432 212.519 56.8592 212.402 56.7992 212.264C56.7392 212.12 56.7092 211.946 56.7092 211.742C56.7092 211.532 56.7452 211.34 56.8172 211.166C56.8952 210.986 57.0002 210.833 57.1322 210.707C57.2642 210.581 57.4202 210.482 57.6002 210.41C57.7802 210.338 57.9752 210.302 58.1852 210.302C58.4972 210.302 58.7612 210.353 58.9772 210.455C59.1992 210.551 59.4272 210.713 59.6612 210.941L59.1482 211.508ZM66.5371 215L65.7631 215.144V214.514H65.7451C65.6791 214.64 65.5951 214.745 65.4931 214.829C65.3971 214.913 65.2891 214.976 65.1691 215.018C65.0551 215.066 64.9291 215.099 64.7911 215.117C64.6591 215.135 64.5271 215.144 64.3951 215.144C64.1431 215.144 63.9121 215.099 63.7021 215.009C63.4981 214.925 63.3211 214.805 63.1711 214.649C63.0211 214.487 62.9041 214.298 62.8201 214.082C62.7421 213.866 62.7031 213.629 62.7031 213.371C62.7031 213.137 62.7511 212.921 62.8471 212.723C62.9431 212.525 63.0721 212.354 63.2341 212.21C63.4021 212.066 63.5941 211.955 63.8101 211.877C64.0321 211.799 64.2691 211.76 64.5211 211.76C64.7311 211.76 64.9351 211.793 65.1331 211.859C65.3371 211.925 65.5171 212.039 65.6731 212.201V211.886C65.6731 211.718 65.6521 211.583 65.6101 211.481C65.5681 211.379 65.5021 211.301 65.4121 211.247C65.3281 211.193 65.2171 211.157 65.0791 211.139C64.9411 211.121 64.7761 211.112 64.5841 211.112C64.3981 211.112 64.1911 211.127 63.9631 211.157C63.7351 211.181 63.5011 211.253 63.2611 211.373L63.4951 210.482C63.7111 210.434 63.9271 210.392 64.1431 210.356C64.3591 210.32 64.5601 210.302 64.7461 210.302C65.3881 210.302 65.8471 210.443 66.1231 210.725C66.3991 211.007 66.5371 211.427 66.5371 211.985V215ZM64.5571 214.334C64.9351 214.334 65.2141 214.25 65.3941 214.082C65.5801 213.914 65.6731 213.677 65.6731 213.371C65.6731 213.119 65.5771 212.915 65.3851 212.759C65.1931 212.603 64.9351 212.525 64.6111 212.525C64.3051 212.525 64.0531 212.603 63.8551 212.759C63.6631 212.909 63.5671 213.113 63.5671 213.371C63.5671 213.695 63.6541 213.938 63.8281 214.1C64.0081 214.256 64.2511 214.334 64.5571 214.334ZM69.7861 211.148H69.6961C69.4921 211.148 69.3061 211.19 69.1381 211.274C68.9701 211.352 68.8261 211.466 68.7061 211.616C68.5921 211.76 68.5021 211.934 68.4361 212.138C68.3761 212.342 68.3461 212.567 68.3461 212.813V215L67.4821 215.144V210.446L68.2921 210.302V211.283H68.3101C68.4661 210.959 68.6551 210.713 68.8771 210.545C69.0991 210.371 69.3901 210.284 69.7501 210.284H70.1461L69.7861 211.148ZM71.4152 213.596C71.5592 213.824 71.7362 214.004 71.9462 214.136C72.1562 214.268 72.3962 214.334 72.6662 214.334C72.7682 214.334 72.8762 214.322 72.9902 214.298C73.1042 214.274 73.2272 214.235 73.3592 214.181C73.4972 214.121 73.6472 214.04 73.8092 213.938C73.9772 213.836 74.1602 213.704 74.3582 213.542L74.5292 214.451C74.2412 214.649 73.9562 214.814 73.6742 214.946C73.3982 215.078 73.0802 215.144 72.7202 215.144C72.3662 215.144 72.0392 215.081 71.7392 214.955C71.4452 214.829 71.1902 214.655 70.9742 214.433C70.7642 214.205 70.5992 213.935 70.4792 213.623C70.3592 213.311 70.2992 212.969 70.2992 212.597C70.2992 212.297 70.3592 212.009 70.4792 211.733C70.5992 211.457 70.7612 211.214 70.9652 211.004C71.1752 210.788 71.4182 210.617 71.6942 210.491C71.9702 210.365 72.2642 210.302 72.5762 210.302C73.0682 210.302 73.4702 210.41 73.7822 210.626C74.0942 210.842 74.3732 211.151 74.6192 211.553L71.4152 213.596ZM73.4312 211.409C73.3292 211.295 73.2092 211.217 73.0712 211.175C72.9392 211.133 72.7922 211.112 72.6302 211.112C72.4202 211.112 72.2252 211.151 72.0452 211.229C71.8652 211.301 71.7092 211.403 71.5772 211.535C71.4452 211.661 71.3402 211.817 71.2622 212.003C71.1902 212.183 71.1542 212.381 71.1542 212.597C71.1542 212.627 71.1542 212.666 71.1542 212.714C71.1542 212.762 71.1572 212.807 71.1632 212.849L73.4312 211.409ZM80.244 215.144C79.896 215.144 79.572 215.081 79.272 214.955C78.972 214.829 78.711 214.655 78.489 214.433C78.267 214.211 78.09 213.956 77.958 213.668C77.832 213.374 77.769 213.059 77.769 212.723C77.769 212.387 77.832 212.072 77.958 211.778C78.09 211.484 78.267 211.229 78.489 211.013C78.711 210.791 78.972 210.617 79.272 210.491C79.578 210.365 79.902 210.302 80.244 210.302C80.592 210.302 80.916 210.368 81.216 210.5C81.522 210.626 81.786 210.8 82.008 211.022C82.23 211.238 82.404 211.493 82.53 211.787C82.662 212.081 82.728 212.393 82.728 212.723C82.728 213.053 82.665 213.365 82.539 213.659C82.413 213.953 82.236 214.211 82.008 214.433C81.786 214.649 81.522 214.823 81.216 214.955C80.916 215.081 80.592 215.144 80.244 215.144ZM80.244 214.334C80.472 214.334 80.685 214.292 80.883 214.208C81.081 214.118 81.252 214.001 81.396 213.857C81.54 213.707 81.654 213.536 81.738 213.344C81.822 213.146 81.864 212.939 81.864 212.723C81.864 212.507 81.822 212.303 81.738 212.111C81.66 211.919 81.549 211.748 81.405 211.598C81.261 211.448 81.087 211.331 80.883 211.247C80.685 211.157 80.469 211.112 80.235 211.112C80.013 211.112 79.803 211.154 79.605 211.238C79.413 211.322 79.245 211.439 79.101 211.589C78.957 211.733 78.843 211.904 78.759 212.102C78.675 212.294 78.633 212.501 78.633 212.723C78.633 212.939 78.672 213.146 78.75 213.344C78.834 213.536 78.948 213.707 79.092 213.857C79.236 214.001 79.407 214.118 79.605 214.208C79.803 214.292 80.016 214.334 80.244 214.334ZM83.748 210.302L84.945 213.254L86.475 210.302H86.493L88.023 213.254L89.247 210.302L90.084 210.446L88.077 215.144H88.059L86.484 212.021L84.882 215.144H84.864L82.911 210.446L83.748 210.302ZM91.3559 210.977H91.3739C91.5059 210.743 91.6949 210.572 91.9409 210.464C92.1929 210.356 92.4539 210.302 92.7239 210.302C93.2699 210.302 93.7049 210.44 94.0289 210.716C94.3529 210.992 94.5149 211.373 94.5149 211.859V215L93.6509 215.144V211.931C93.6509 211.661 93.5639 211.451 93.3899 211.301C93.2159 211.145 92.9669 211.067 92.6429 211.067C92.2589 211.067 91.9469 211.187 91.7069 211.427C91.4729 211.667 91.3559 212 91.3559 212.426V215L90.4919 215.144V210.446L91.3559 210.302V210.977ZM96.4288 213.596C96.5728 213.824 96.7498 214.004 96.9598 214.136C97.1698 214.268 97.4098 214.334 97.6798 214.334C97.7818 214.334 97.8898 214.322 98.0038 214.298C98.1178 214.274 98.2408 214.235 98.3728 214.181C98.5108 214.121 98.6608 214.04 98.8228 213.938C98.9908 213.836 99.1738 213.704 99.3718 213.542L99.5428 214.451C99.2548 214.649 98.9698 214.814 98.6878 214.946C98.4118 215.078 98.0938 215.144 97.7338 215.144C97.3798 215.144 97.0528 215.081 96.7528 214.955C96.4588 214.829 96.2038 214.655 95.9878 214.433C95.7778 214.205 95.6128 213.935 95.4928 213.623C95.3728 213.311 95.3128 212.969 95.3128 212.597C95.3128 212.297 95.3728 212.009 95.4928 211.733C95.6128 211.457 95.7748 211.214 95.9788 211.004C96.1888 210.788 96.4318 210.617 96.7078 210.491C96.9838 210.365 97.2778 210.302 97.5898 210.302C98.0818 210.302 98.4838 210.41 98.7958 210.626C99.1078 210.842 99.3868 211.151 99.6328 211.553L96.4288 213.596ZM98.4448 211.409C98.3428 211.295 98.2228 211.217 98.0848 211.175C97.9528 211.133 97.8058 211.112 97.6438 211.112C97.4338 211.112 97.2388 211.151 97.0588 211.229C96.8788 211.301 96.7228 211.403 96.5908 211.535C96.4588 211.661 96.3538 211.817 96.2758 212.003C96.2038 212.183 96.1678 212.381 96.1678 212.597C96.1678 212.627 96.1678 212.666 96.1678 212.714C96.1678 212.762 96.1708 212.807 96.1768 212.849L98.4448 211.409ZM105.075 215L104.265 215.108V214.379C104.043 214.631 103.794 214.823 103.518 214.955C103.248 215.081 102.942 215.144 102.6 215.144C102.276 215.144 101.973 215.078 101.691 214.946C101.409 214.814 101.163 214.634 100.953 214.406C100.743 214.178 100.578 213.914 100.458 213.614C100.338 213.314 100.278 212.996 100.278 212.66C100.278 212.33 100.338 212.024 100.458 211.742C100.578 211.454 100.74 211.205 100.944 210.995C101.154 210.779 101.4 210.611 101.682 210.491C101.97 210.365 102.276 210.302 102.6 210.302C102.918 210.302 103.215 210.365 103.491 210.491C103.767 210.617 104.007 210.773 104.211 210.959V208.781L105.075 208.637V215ZM102.681 214.334C102.921 214.334 103.14 214.295 103.338 214.217C103.542 214.139 103.716 214.031 103.86 213.893C104.004 213.749 104.115 213.578 104.193 213.38C104.277 213.182 104.319 212.966 104.319 212.732C104.319 212.492 104.277 212.273 104.193 212.075C104.109 211.877 103.992 211.706 103.842 211.562C103.692 211.418 103.512 211.307 103.302 211.229C103.098 211.151 102.873 211.112 102.627 211.112C102.429 211.112 102.24 211.154 102.06 211.238C101.88 211.322 101.721 211.439 101.583 211.589C101.451 211.733 101.343 211.904 101.259 212.102C101.181 212.3 101.142 212.51 101.142 212.732C101.142 212.942 101.181 213.143 101.259 213.335C101.343 213.527 101.454 213.698 101.592 213.848C101.73 213.992 101.892 214.109 102.078 214.199C102.27 214.289 102.471 214.334 102.681 214.334Z" fill="black"/>
<path d="M120.902 208.682H120.92L123.017 213.713L125.096 208.682H125.114L126.356 215L125.798 215.072L124.916 210.5H124.898L123.026 215.144H123.008L121.064 210.5H121.046L120.2 215.072L119.642 215L120.902 208.682Z" fill="black"/>
<path fill-rule="evenodd" clip-rule="evenodd" d="M126.283 211.3H119.717L119.613 211.8H126.388L126.283 211.3ZM126.521 212.442H119.479L119.375 212.942H126.626L126.521 212.442Z" fill="black"/>
<path d="M131.99 210.608C131.99 210.848 131.945 211.088 131.855 211.328C131.765 211.568 131.651 211.802 131.513 212.03C131.375 212.252 131.222 212.465 131.054 212.669C130.886 212.873 130.724 213.059 130.568 213.227L129.659 214.19H132.089L131.927 215H127.886L130.352 212.138C130.442 212.036 130.532 211.922 130.622 211.796C130.712 211.67 130.793 211.541 130.865 211.409C130.937 211.271 130.994 211.136 131.036 211.004C131.084 210.866 131.108 210.734 131.108 210.608C131.108 210.26 131 209.987 130.784 209.789C130.568 209.591 130.28 209.492 129.92 209.492C129.746 209.492 129.587 209.522 129.443 209.582C129.299 209.642 129.173 209.726 129.065 209.834C128.957 209.936 128.873 210.056 128.813 210.194C128.753 210.332 128.723 210.479 128.723 210.635C128.723 211.031 128.822 211.343 129.02 211.571C129.224 211.793 129.479 211.919 129.785 211.949L129.227 212.651C128.831 212.525 128.513 212.285 128.273 211.931C128.033 211.577 127.913 211.136 127.913 210.608C127.913 210.326 127.964 210.068 128.066 209.834C128.174 209.6 128.321 209.399 128.507 209.231C128.693 209.057 128.912 208.922 129.164 208.826C129.416 208.73 129.692 208.682 129.992 208.682C130.274 208.682 130.535 208.727 130.775 208.817C131.021 208.907 131.234 209.036 131.414 209.204C131.594 209.372 131.735 209.576 131.837 209.816C131.939 210.05 131.99 210.314 131.99 210.608ZM135.002 215.144C134.588 215.144 134.237 215.048 133.949 214.856C133.661 214.658 133.43 214.406 133.256 214.1C133.082 213.788 132.956 213.44 132.878 213.056C132.8 212.666 132.761 212.282 132.761 211.904C132.761 211.676 132.776 211.439 132.806 211.193C132.836 210.947 132.884 210.704 132.95 210.464C133.022 210.224 133.115 209.996 133.229 209.78C133.343 209.564 133.481 209.375 133.643 209.213C133.811 209.051 134.006 208.922 134.228 208.826C134.45 208.73 134.708 208.682 135.002 208.682C135.422 208.682 135.773 208.781 136.055 208.979C136.343 209.177 136.574 209.432 136.748 209.744C136.928 210.056 137.054 210.404 137.126 210.788C137.204 211.172 137.243 211.553 137.243 211.931C137.243 212.273 137.207 212.633 137.135 213.011C137.063 213.383 136.94 213.728 136.766 214.046C136.598 214.364 136.37 214.628 136.082 214.838C135.794 215.042 135.434 215.144 135.002 215.144ZM135.002 214.334C135.452 214.334 135.791 214.127 136.019 213.713C136.247 213.293 136.361 212.693 136.361 211.913C136.361 211.145 136.247 210.551 136.019 210.131C135.797 209.705 135.455 209.492 134.993 209.492C134.573 209.492 134.243 209.693 134.003 210.095C133.763 210.491 133.643 211.097 133.643 211.913C133.643 212.693 133.757 213.293 133.985 213.713C134.213 214.127 134.552 214.334 135.002 214.334ZM140.002 215.144C139.588 215.144 139.237 215.048 138.949 214.856C138.661 214.658 138.43 214.406 138.256 214.1C138.082 213.788 137.956 213.44 137.878 213.056C137.8 212.666 137.761 212.282 137.761 211.904C137.761 211.676 137.776 211.439 137.806 211.193C137.836 210.947 137.884 210.704 137.95 210.464C138.022 210.224 138.115 209.996 138.229 209.78C138.343 209.564 138.481 209.375 138.643 209.213C138.811 209.051 139.006 208.922 139.228 208.826C139.45 208.73 139.708 208.682 140.002 208.682C140.422 208.682 140.773 208.781 141.055 208.979C141.343 209.177 141.574 209.432 141.748 209.744C141.928 210.056 142.054 210.404 142.126 210.788C142.204 211.172 142.243 211.553 142.243 211.931C142.243 212.273 142.207 212.633 142.135 213.011C142.063 213.383 141.94 213.728 141.766 214.046C141.598 214.364 141.37 214.628 141.082 214.838C140.794 215.042 140.434 215.144 140.002 215.144ZM140.002 214.334C140.452 214.334 140.791 214.127 141.019 213.713C141.247 213.293 141.361 212.693 141.361 211.913C141.361 211.145 141.247 210.551 141.019 210.131C140.797 209.705 140.455 209.492 139.993 209.492C139.573 209.492 139.243 209.693 139.003 210.095C138.763 210.491 138.643 211.097 138.643 211.913C138.643 212.693 138.757 213.293 138.985 213.713C139.213 214.127 139.552 214.334 140.002 214.334Z" fill="black"/>
</svg>
